<svg id="svg" version="1.1" xmlns="http://www.w3.org/2000/svg" xmlns:xlink="http://www.w3.org/1999/xlink" width="50" height="50" viewBox="0, 0, 400,400"><g id="svgg"><path id="path0" d="M187.800 40.643 C 185.233 40.989,181.655 41.653,178.400 42.388 C 176.530 42.810,173.380 43.433,171.400 43.772 C 166.448 44.619,162.965 45.415,160.600 46.240 C 159.500 46.624,157.700 47.246,156.600 47.622 C 155.500 47.997,153.970 48.526,153.200 48.798 C 152.430 49.069,150.990 49.522,150.000 49.806 C 149.010 50.090,147.660 50.608,147.000 50.958 C 146.340 51.309,145.507 51.596,145.149 51.598 C 144.791 51.599,144.280 51.863,144.013 52.185 C 143.746 52.506,143.139 52.886,142.664 53.029 C 141.832 53.280,136.866 55.526,134.800 56.587 C 133.617 57.194,132.001 58.114,129.800 59.435 C 128.920 59.962,127.570 60.686,126.800 61.042 C 126.030 61.398,125.310 61.809,125.200 61.954 C 125.090 62.100,123.110 63.471,120.800 65.001 C 106.418 74.525,92.088 88.855,82.598 103.200 C 81.069 105.510,79.701 107.490,79.557 107.600 C 79.412 107.710,78.926 108.520,78.476 109.400 C 77.019 112.250,76.412 113.371,75.444 115.000 C 74.420 116.723,72.759 120.025,71.622 122.600 C 71.233 123.480,70.418 125.280,69.812 126.600 C 67.619 131.374,67.162 132.593,65.837 137.218 C 65.550 138.219,65.133 139.389,64.910 139.818 C 64.688 140.248,64.379 141.301,64.224 142.158 C 64.069 143.016,63.704 144.096,63.414 144.558 C 63.124 145.021,62.759 146.300,62.604 147.400 C 62.448 148.500,62.160 149.702,61.962 150.071 C 61.765 150.440,61.341 152.738,61.020 155.179 C 60.700 157.619,60.327 159.795,60.192 160.013 C 59.967 160.377,59.441 165.528,58.386 177.700 C 57.987 182.315,58.038 183.527,59.182 196.400 C 59.584 200.932,60.870 209.683,61.650 213.200 C 63.091 219.692,63.266 220.316,65.026 225.200 C 65.304 225.970,66.018 228.220,66.614 230.200 C 67.210 232.180,67.857 234.070,68.052 234.400 C 68.246 234.730,68.516 235.270,68.651 235.600 C 68.884 236.170,69.454 237.468,71.154 241.300 C 72.661 244.696,74.827 249.027,75.605 250.200 C 76.043 250.860,76.669 251.973,76.995 252.673 C 77.321 253.373,77.751 254.046,77.950 254.169 C 78.149 254.292,78.432 254.871,78.578 255.457 C 78.725 256.042,79.434 257.259,80.152 258.161 C 80.871 259.062,82.332 261.150,83.399 262.800 C 84.466 264.450,86.297 266.990,87.469 268.444 C 88.641 269.899,89.600 271.384,89.600 271.744 C 89.600 272.718,146.406 272.757,147.214 271.784 C 147.610 271.306,147.670 269.377,147.479 263.202 C 147.184 253.688,147.121 253.506,141.586 246.196 C 139.942 244.025,137.082 239.777,135.530 237.200 C 134.450 235.407,133.207 230.555,132.792 226.507 C 132.568 224.326,132.198 221.925,131.968 221.171 C 130.648 216.825,130.627 180.974,131.943 177.542 C 132.166 176.961,132.634 173.181,132.983 169.142 C 134.267 154.312,134.122 155.074,136.272 151.861 C 137.325 150.288,138.280 148.910,138.393 148.800 C 138.507 148.690,139.488 147.275,140.573 145.656 C 141.658 144.037,142.738 142.507,142.973 142.256 C 143.208 142.005,144.200 140.720,145.178 139.400 C 146.979 136.968,150.844 132.072,153.529 128.818 C 157.446 124.072,159.141 123.402,166.200 123.809 C 173.600 124.236,173.630 124.232,174.900 122.731 C 175.505 122.015,176.000 121.220,176.000 120.964 C 176.000 120.708,176.280 120.265,176.623 119.981 C 176.966 119.696,177.506 118.909,177.823 118.232 C 179.764 114.090,183.368 109.803,186.200 108.268 C 187.727 107.440,188.283 107.400,198.400 107.400 L 209.000 107.400 212.000 105.653 C 213.650 104.692,215.360 103.612,215.800 103.253 C 220.591 99.344,226.585 98.280,233.910 100.036 C 236.510 100.660,240.550 99.844,244.000 97.998 C 251.231 94.130,251.716 93.938,253.723 94.157 C 255.859 94.391,261.351 96.180,262.585 97.044 C 263.021 97.350,263.626 97.600,263.929 97.600 C 264.231 97.600,265.046 97.856,265.740 98.170 C 266.433 98.483,268.350 99.314,270.000 100.018 C 274.838 102.080,277.299 104.560,278.434 108.519 C 278.719 109.512,278.556 109.883,277.181 111.375 C 275.352 113.358,275.321 113.589,276.430 116.913 C 277.560 120.301,278.084 121.008,280.708 122.687 C 286.927 126.665,292.689 136.434,292.275 142.299 C 291.983 146.456,291.223 154.624,290.778 158.400 C 290.557 160.270,290.189 165.580,289.960 170.200 C 289.457 180.323,288.757 183.051,285.494 187.613 C 277.445 198.862,274.462 203.274,273.466 205.400 C 272.603 207.243,270.424 213.909,270.393 214.800 C 270.382 215.130,270.025 216.120,269.600 217.000 C 269.175 217.880,268.821 218.858,268.814 219.174 C 268.806 219.489,268.463 220.479,268.051 221.374 C 267.639 222.268,266.802 224.184,266.191 225.632 C 265.097 228.227,261.940 232.415,255.200 240.210 C 245.244 251.726,244.008 254.579,243.865 266.377 L 243.800 271.755 244.800 272.037 C 245.350 272.193,260.339 272.338,278.110 272.360 L 310.420 272.400 310.765 271.492 C 310.955 270.992,311.909 269.597,312.885 268.392 C 313.861 267.186,315.890 264.310,317.393 262.000 C 318.897 259.690,320.323 257.620,320.563 257.400 C 320.804 257.180,321.311 256.370,321.691 255.600 C 322.071 254.830,323.097 252.940,323.971 251.400 C 325.657 248.431,327.727 244.279,329.654 240.000 C 330.298 238.570,331.160 236.680,331.570 235.800 C 332.348 234.131,333.277 231.475,334.163 228.382 C 334.450 227.381,334.865 226.211,335.086 225.782 C 335.307 225.352,335.603 224.370,335.745 223.600 C 335.887 222.830,336.260 221.660,336.573 221.000 C 338.679 216.568,342.006 193.229,342.002 182.920 C 342.001 180.237,341.743 176.007,341.429 173.520 C 341.115 171.034,340.747 167.650,340.611 166.000 C 340.338 162.686,338.997 154.014,338.323 151.200 C 338.086 150.210,337.668 148.275,337.395 146.900 C 337.121 145.524,336.716 144.174,336.495 143.900 C 336.273 143.625,335.963 142.770,335.804 142.000 C 335.645 141.230,335.287 140.060,335.007 139.400 C 334.727 138.740,334.002 136.580,333.395 134.600 C 332.395 131.339,331.245 128.407,330.335 126.800 C 330.148 126.470,329.884 125.930,329.749 125.600 C 328.377 122.249,325.395 116.111,324.405 114.600 C 323.972 113.940,322.965 112.094,322.167 110.498 C 321.369 108.901,320.567 107.503,320.385 107.391 C 320.203 107.278,318.696 105.164,317.037 102.693 C 309.441 91.381,298.180 79.111,289.200 72.362 C 287.990 71.452,286.721 70.414,286.380 70.054 C 286.040 69.694,285.474 69.220,285.122 69.000 C 284.771 68.780,282.387 67.160,279.825 65.400 C 275.452 62.396,272.487 60.557,270.580 59.664 C 270.128 59.453,268.958 58.745,267.980 58.090 C 267.001 57.435,264.940 56.346,263.400 55.669 C 261.860 54.992,259.887 54.069,259.015 53.619 C 258.144 53.169,257.221 52.800,256.964 52.800 C 256.708 52.800,256.274 52.530,256.000 52.200 C 255.726 51.870,255.209 51.599,254.851 51.598 C 254.493 51.596,253.660 51.305,253.000 50.951 C 252.340 50.596,250.990 50.067,250.000 49.774 C 247.113 48.921,244.297 47.957,242.940 47.357 C 242.246 47.051,241.339 46.800,240.924 46.800 C 240.509 46.800,239.463 46.440,238.600 46.000 C 237.737 45.560,236.653 45.200,236.191 45.200 C 235.729 45.200,234.012 44.858,232.375 44.440 C 230.739 44.022,228.320 43.560,227.000 43.413 C 225.680 43.267,223.880 42.959,223.000 42.729 C 216.119 40.933,194.957 39.679,187.800 40.643 M250.800 98.705 C 245.881 101.968,245.163 103.839,248.018 105.950 C 249.130 106.772,249.212 106.775,253.673 106.152 C 258.469 105.482,261.369 105.610,263.731 106.597 C 265.754 107.442,266.789 107.353,268.507 106.186 C 270.421 104.885,270.401 104.801,267.899 103.557 C 264.523 101.878,263.201 101.341,259.600 100.184 C 257.730 99.583,255.609 98.846,254.886 98.546 C 253.185 97.839,252.038 97.884,250.800 98.705 M222.372 103.943 C 220.093 105.262,216.824 107.669,215.846 108.749 C 215.120 109.551,215.140 109.610,216.953 112.023 L 218.800 114.479 218.795 127.140 C 218.791 134.859,218.561 142.454,218.203 146.600 C 217.019 160.323,217.357 164.783,219.580 164.814 C 220.141 164.822,221.050 165.086,221.600 165.400 C 224.054 166.803,224.168 165.938,221.947 162.771 L 220.295 160.415 220.579 149.308 C 220.736 143.198,221.037 136.490,221.249 134.400 C 221.461 132.310,221.880 127.965,222.180 124.744 C 222.881 117.211,223.494 116.165,227.766 115.208 C 228.803 114.975,230.044 114.539,230.525 114.238 C 231.006 113.936,232.120 113.567,233.000 113.416 C 235.837 112.930,239.465 107.790,238.389 105.780 C 236.848 102.900,226.273 101.687,222.372 103.943 M239.570 111.313 C 237.858 112.638,234.000 119.498,234.000 121.218 C 234.000 129.350,239.539 136.430,249.949 141.606 L 255.972 144.600 255.986 146.086 C 255.994 146.904,255.734 148.164,255.409 148.886 C 250.587 159.597,252.977 167.228,264.090 176.598 C 267.231 179.247,267.836 176.287,266.142 166.556 C 265.891 165.113,266.497 164.815,269.700 164.805 C 272.374 164.798,272.353 164.653,268.930 159.332 C 268.199 158.195,267.600 156.908,267.600 156.472 C 267.600 155.868,271.109 152.368,272.732 151.351 C 273.158 151.085,271.752 149.482,270.487 148.792 C 269.669 148.346,267.740 147.268,266.200 146.395 C 262.014 144.024,255.225 140.800,254.417 140.800 C 251.637 140.800,242.214 133.826,241.401 131.167 C 241.238 130.635,240.888 129.930,240.622 129.600 C 238.909 127.474,238.245 119.264,239.515 115.918 C 240.460 113.431,240.474 113.423,242.251 114.376 C 243.097 114.829,244.034 115.200,244.334 115.200 C 244.634 115.200,245.446 115.451,246.140 115.758 C 247.846 116.513,254.157 118.400,254.977 118.400 C 256.443 118.400,257.600 120.231,257.600 122.549 C 257.600 126.040,257.551 126.000,261.875 126.000 C 263.959 126.000,267.314 126.194,269.332 126.431 C 276.311 127.250,277.858 124.724,271.800 122.402 C 270.480 121.896,268.590 121.123,267.600 120.683 C 266.610 120.244,265.260 119.646,264.600 119.355 C 263.225 118.749,260.612 117.803,258.000 116.964 C 257.010 116.647,255.633 116.120,254.940 115.793 C 254.246 115.467,253.431 115.200,253.129 115.200 C 252.826 115.200,252.160 114.907,251.648 114.549 C 251.137 114.190,250.152 113.750,249.459 113.570 C 248.767 113.391,246.670 112.699,244.800 112.033 C 241.013 110.685,240.477 110.611,239.570 111.313 M189.704 112.275 C 188.174 112.429,185.600 114.862,185.600 116.154 C 185.600 116.358,183.934 118.993,183.294 119.800 C 182.346 120.996,180.800 124.048,180.800 124.722 C 180.800 125.696,181.227 126.021,184.099 127.231 C 188.480 129.078,188.497 129.105,189.052 135.449 C 192.018 169.312,192.838 174.720,195.163 175.722 C 195.734 175.967,196.629 176.490,197.154 176.884 C 199.165 178.394,200.382 177.242,199.054 175.086 C 198.163 173.640,197.269 168.226,196.795 161.400 C 196.551 157.880,196.101 153.470,195.797 151.600 C 195.492 149.730,195.136 146.959,195.005 145.442 C 194.873 143.925,194.589 142.353,194.373 141.949 C 194.156 141.545,193.798 139.726,193.576 137.907 C 193.354 136.088,192.995 134.046,192.778 133.370 C 192.415 132.235,191.223 125.559,191.207 124.569 C 191.196 123.919,193.620 120.375,195.083 118.900 L 196.373 117.600 204.107 117.600 C 212.249 117.600,212.800 117.484,212.800 115.769 C 212.800 112.965,200.837 111.156,189.704 112.275 M162.200 128.603 C 161.980 128.679,160.810 129.023,159.600 129.367 C 157.193 130.052,157.226 130.018,149.005 140.600 C 147.125 143.020,145.069 145.639,144.437 146.421 C 138.502 153.758,138.663 153.267,138.134 165.585 C 137.773 173.977,138.727 177.910,140.847 176.775 C 141.624 176.359,143.034 175.943,147.087 174.933 C 147.702 174.780,148.455 175.093,149.544 175.956 C 151.440 177.457,151.589 177.464,152.580 176.106 C 153.881 174.323,153.680 171.379,152.112 169.257 C 151.404 168.299,150.266 166.319,149.583 164.857 C 148.899 163.396,148.098 161.746,147.801 161.191 C 147.504 160.635,147.203 159.105,147.131 157.791 L 147.000 155.400 149.970 155.200 L 152.940 155.000 153.779 153.400 C 154.776 151.497,157.200 145.419,157.200 144.820 C 157.200 144.343,157.642 144.288,158.577 144.646 C 159.467 144.988,162.495 149.688,164.990 154.600 C 165.326 155.260,166.036 156.566,166.568 157.502 C 168.148 160.281,169.543 165.147,169.808 168.800 C 170.070 172.427,171.291 176.565,172.427 177.678 C 172.807 178.050,173.213 178.590,173.329 178.878 C 174.566 181.950,174.430 167.927,173.161 161.643 C 172.537 158.550,172.153 157.581,170.990 156.162 C 168.206 152.764,166.565 139.035,168.690 136.910 C 170.100 135.500,178.409 134.548,182.252 135.357 C 185.251 135.988,184.988 132.514,181.914 130.897 C 178.425 129.061,165.276 127.531,162.200 128.603 M239.800 169.575 C 232.774 171.675,226.382 176.914,222.514 183.742 C 221.535 185.470,218.642 188.508,217.438 189.074 C 215.960 189.768,214.024 190.722,213.218 191.153 C 208.134 193.874,204.394 214.883,207.871 221.186 C 210.507 225.964,212.655 226.841,219.397 225.893 C 223.871 225.265,226.643 224.245,228.600 222.510 C 230.457 220.863,233.600 215.950,233.600 214.695 C 233.600 214.366,233.841 213.898,234.135 213.654 C 234.430 213.409,234.899 212.442,235.177 211.505 C 235.591 210.114,236.874 208.621,242.142 203.400 C 245.694 199.880,249.096 196.370,249.703 195.600 C 252.300 192.304,252.747 191.671,254.212 189.200 C 256.117 185.988,256.280 182.288,254.769 176.568 C 252.985 169.816,247.525 167.265,239.800 169.575 M146.800 189.836 C 137.132 193.013,136.395 193.854,136.410 201.710 C 136.415 204.619,136.597 207.769,136.814 208.708 C 137.030 209.647,137.384 212.119,137.600 214.201 C 137.816 216.282,138.275 219.113,138.620 220.493 C 138.966 221.872,139.609 224.440,140.050 226.200 C 140.825 229.295,142.168 233.330,142.727 234.246 C 143.989 236.310,146.506 239.911,148.427 242.400 C 150.984 245.712,152.978 249.430,153.541 251.936 C 153.743 252.834,154.463 254.270,155.142 255.127 C 157.458 258.051,158.219 261.913,157.556 267.377 C 157.160 270.646,157.184 270.999,157.838 271.477 C 158.677 272.091,183.402 272.240,184.354 271.637 C 185.201 271.100,182.845 269.187,178.600 266.962 C 176.620 265.925,174.929 265.018,174.842 264.947 C 174.594 264.744,176.049 261.071,176.655 260.369 C 177.562 259.318,177.304 258.194,176.012 257.572 C 170.937 255.127,166.239 252.476,165.364 251.562 L 164.318 250.471 166.109 247.909 C 168.598 244.348,168.687 243.913,167.182 242.646 C 166.498 242.071,165.789 241.600,165.605 241.600 C 164.761 241.600,161.950 239.342,161.737 238.492 C 161.444 237.322,161.571 237.211,164.800 235.816 C 166.230 235.198,167.601 234.535,167.846 234.342 C 168.092 234.149,170.252 232.985,172.646 231.756 C 175.041 230.527,177.775 228.954,178.723 228.261 C 188.091 221.405,190.585 218.129,190.552 212.722 C 190.515 206.659,190.289 206.539,178.200 206.158 C 168.276 205.845,167.415 205.443,168.809 201.775 C 170.348 197.728,169.805 196.204,166.492 195.275 C 165.671 195.045,164.190 194.581,163.200 194.244 C 162.210 193.907,159.510 193.324,157.200 192.950 C 152.610 192.205,151.906 191.887,152.068 190.634 C 152.337 188.548,151.229 188.380,146.800 189.836 M138.600 329.351 C 129.307 333.733,131.640 349.236,141.750 350.280 C 147.630 350.887,151.433 348.713,153.782 343.403 C 157.771 334.382,147.700 325.060,138.600 329.351 M180.501 328.707 C 179.343 328.898,179.239 329.446,179.108 336.068 C 179.049 339.075,178.852 341.684,178.670 341.864 C 178.172 342.361,175.886 339.562,172.246 334.000 L 168.975 329.000 167.187 329.000 L 165.400 329.000 165.293 339.500 L 165.187 350.000 166.544 350.000 C 168.588 350.000,168.765 349.499,168.888 343.378 C 169.036 336.001,169.498 335.759,173.209 341.120 C 173.864 342.066,174.400 342.935,174.400 343.051 C 174.400 343.420,178.492 349.388,178.955 349.694 C 179.200 349.856,179.977 349.991,180.682 349.994 C 182.406 350.002,182.476 349.501,182.324 338.319 C 182.196 328.940,182.102 328.444,180.501 328.707 M194.180 329.307 C 194.073 329.586,194.034 334.311,194.093 339.807 L 194.200 349.800 198.502 349.914 C 202.754 350.026,202.810 350.015,203.261 349.025 C 203.927 347.564,203.135 346.800,200.951 346.800 C 197.748 346.800,197.602 346.404,197.587 337.700 C 197.578 332.098,197.440 330.023,197.043 329.500 C 196.429 328.691,194.467 328.559,194.180 329.307 M214.262 329.531 C 213.686 330.167,213.600 331.463,213.600 339.455 C 213.600 349.602,213.721 350.173,215.820 349.934 L 217.000 349.800 217.113 340.200 C 217.175 334.920,217.126 330.195,217.005 329.700 C 216.731 328.579,215.208 328.486,214.262 329.531 M228.995 329.700 C 228.874 330.195,228.825 334.920,228.887 340.200 L 229.000 349.800 230.246 349.921 C 231.825 350.075,231.998 349.364,232.006 342.650 C 232.009 339.983,232.162 337.563,232.346 337.274 C 232.726 336.674,236.000 340.059,237.085 342.175 C 237.732 343.435,240.745 348.055,241.733 349.300 C 242.289 350.001,243.781 350.212,244.967 349.757 C 245.520 349.545,245.600 348.301,245.600 339.931 C 245.600 329.775,245.442 328.800,243.800 328.800 C 242.299 328.800,242.000 329.917,242.000 335.525 C 242.000 342.705,240.894 343.015,237.291 336.842 C 232.966 329.435,229.740 326.657,228.995 329.700 M257.795 329.700 C 257.674 330.195,257.625 334.920,257.687 340.200 L 257.800 349.800 263.089 349.912 L 268.379 350.023 268.623 349.049 C 269.138 346.997,268.292 346.400,264.866 346.400 C 261.115 346.400,260.800 346.147,260.800 343.134 C 260.800 340.298,261.214 340.000,265.160 340.000 C 268.279 340.000,269.066 339.401,268.566 337.408 C 268.323 336.438,268.195 336.400,265.189 336.400 C 261.107 336.400,260.800 336.260,260.800 334.400 C 260.800 332.540,261.107 332.400,265.189 332.400 C 268.576 332.400,269.131 331.951,268.539 329.688 C 268.174 328.291,258.137 328.302,257.795 329.700 M146.600 332.382 C 153.937 335.239,151.537 347.200,143.627 347.200 C 134.793 347.200,133.117 334.998,141.532 331.947 C 143.336 331.293,143.936 331.344,146.600 332.382 M64.134 335.083 C 63.438 335.172,62.754 335.542,62.615 335.905 C 62.290 336.751,62.314 356.535,62.642 358.282 L 62.889 359.600 200.145 359.594 C 275.635 359.591,337.610 359.454,337.866 359.291 C 338.482 358.899,339.098 337.642,338.536 336.176 C 338.298 335.557,337.465 335.291,335.200 335.111 L 333.800 335.000 333.600 344.600 C 333.490 349.880,333.254 354.425,333.076 354.700 C 332.706 355.273,68.208 355.447,67.307 354.875 C 66.944 354.644,66.786 351.995,66.707 344.786 C 66.590 334.083,66.765 334.745,64.134 335.083 " stroke="none" fill="#f03e46" fill-rule="evenodd"></path><path id="path1" d="M249.000 95.384 C 247.460 96.174,245.210 97.351,244.000 97.998 C 240.550 99.844,236.510 100.660,233.910 100.036 C 229.036 98.867,223.539 98.967,220.946 100.271 C 217.908 101.800,216.781 102.452,215.800 103.253 C 215.360 103.612,213.650 104.692,212.000 105.653 L 209.000 107.400 198.400 107.400 C 188.283 107.400,187.727 107.440,186.200 108.268 C 183.368 109.803,179.764 114.090,177.823 118.232 C 177.506 118.909,176.966 119.696,176.623 119.981 C 176.280 120.265,176.000 120.708,176.000 120.964 C 176.000 121.220,175.505 122.015,174.900 122.731 C 173.630 124.232,173.600 124.236,166.200 123.809 C 159.141 123.402,157.446 124.072,153.529 128.818 C 150.844 132.072,146.979 136.968,145.178 139.400 C 144.200 140.720,143.208 142.005,142.973 142.256 C 142.738 142.507,141.658 144.037,140.573 145.656 C 139.488 147.275,138.507 148.690,138.393 148.800 C 138.280 148.910,137.325 150.288,136.272 151.861 C 134.122 155.074,134.267 154.312,132.983 169.142 C 132.634 173.181,132.166 176.961,131.943 177.542 C 130.627 180.974,130.648 216.825,131.968 221.171 C 132.198 221.925,132.568 224.326,132.792 226.507 C 133.207 230.555,134.450 235.407,135.530 237.200 C 137.082 239.777,139.942 244.025,141.586 246.196 C 147.121 253.506,147.184 253.688,147.479 263.202 C 147.670 269.377,147.610 271.306,147.214 271.784 C 146.766 272.323,144.303 272.400,127.451 272.400 C 79.259 272.401,49.925 272.875,49.134 273.666 C 48.435 274.365,48.400 275.832,48.400 304.206 L 48.400 334.012 49.700 335.396 C 51.210 337.004,61.634 344.026,62.091 343.743 C 62.261 343.639,62.403 341.898,62.406 339.876 C 62.413 335.589,62.497 335.403,64.568 335.076 C 66.871 334.712,66.787 335.630,66.794 310.580 C 66.798 293.060,66.918 287.242,67.280 286.880 C 69.189 284.971,83.711 286.811,86.323 289.293 C 90.765 293.514,90.696 302.801,86.200 305.800 C 85.540 306.240,84.578 306.899,84.062 307.265 L 83.123 307.929 84.252 310.465 C 84.873 311.859,85.779 313.593,86.265 314.318 C 86.751 315.043,87.915 317.176,88.852 319.057 C 90.641 322.653,91.293 323.206,93.726 323.194 C 96.070 323.183,95.966 323.984,96.088 305.052 C 96.195 288.243,96.231 287.512,96.976 286.968 C 97.883 286.305,115.761 286.135,116.779 286.779 C 117.677 287.347,117.869 292.130,117.044 293.388 C 116.409 294.359,116.276 294.381,110.498 294.489 L 104.600 294.600 104.474 296.368 C 104.207 300.102,104.037 300.000,110.546 300.000 C 117.486 300.000,117.600 300.067,117.600 304.117 C 117.600 307.564,117.523 307.600,110.226 307.600 L 104.400 307.600 104.400 311.971 L 104.400 316.342 110.433 316.471 C 117.436 316.621,117.600 316.708,117.600 320.289 C 117.600 323.255,120.292 324.258,121.241 321.645 C 121.450 321.070,121.860 320.060,122.153 319.400 C 124.856 313.295,126.344 310.049,127.038 308.738 C 127.347 308.154,127.600 307.468,127.600 307.214 C 127.600 306.761,128.325 305.092,130.990 299.400 C 133.372 294.313,133.438 294.400,127.169 294.400 C 121.540 294.400,121.400 294.303,121.400 290.400 C 121.400 286.155,120.756 286.370,133.154 286.494 L 143.800 286.600 143.928 287.937 C 143.999 288.673,143.807 289.573,143.503 289.937 C 143.198 290.302,142.072 292.850,141.000 295.600 C 139.928 298.350,138.815 300.884,138.526 301.231 C 138.237 301.579,138.000 302.124,138.000 302.442 C 138.000 302.761,137.746 303.384,137.436 303.827 C 137.126 304.270,136.220 306.303,135.422 308.345 C 134.624 310.387,133.809 312.360,133.611 312.729 C 131.665 316.363,131.893 316.574,137.932 316.734 C 143.856 316.892,144.000 316.968,144.000 319.969 C 144.000 322.618,144.432 323.200,146.400 323.200 C 148.886 323.200,148.800 323.857,148.800 304.800 C 148.800 284.830,148.459 286.400,152.800 286.400 C 157.142 286.400,156.800 284.826,156.800 304.831 C 156.800 325.048,156.422 323.406,161.011 323.112 C 164.627 322.880,164.733 322.801,163.382 321.345 C 160.842 318.608,160.673 316.490,162.906 315.359 C 163.618 314.999,164.484 314.456,164.830 314.153 C 165.637 313.448,167.690 313.270,167.896 313.887 C 168.922 316.966,173.021 318.447,175.641 316.686 C 178.262 314.924,177.220 312.830,171.287 307.943 C 164.532 302.378,162.404 299.326,162.404 295.200 C 162.404 285.569,175.851 282.224,182.586 290.180 L 184.200 292.086 182.214 293.885 C 179.583 296.270,178.533 296.659,177.440 295.655 C 174.710 293.148,172.292 292.612,170.814 294.185 C 169.625 295.451,170.018 296.113,174.066 299.659 C 176.687 301.955,182.063 307.206,183.473 308.847 C 185.385 311.073,185.077 317.798,182.935 320.604 C 181.123 322.976,181.120 322.974,187.243 323.140 C 194.283 323.331,193.600 324.853,193.600 308.984 C 193.600 293.271,193.832 294.400,190.606 294.400 C 187.406 294.400,187.000 293.954,187.000 290.439 C 187.000 286.061,186.115 286.400,197.538 286.400 C 209.147 286.400,208.600 286.202,208.600 290.400 C 208.600 293.929,208.229 294.334,204.866 294.483 L 202.200 294.600 202.095 308.652 L 201.990 322.704 202.895 322.947 C 204.058 323.258,210.327 323.262,211.484 322.952 L 212.369 322.715 212.484 305.218 C 212.578 291.106,212.706 287.594,213.149 287.061 C 213.853 286.214,232.287 286.047,233.120 286.880 C 233.800 287.560,233.762 293.368,233.073 293.940 C 232.760 294.199,230.196 294.422,226.773 294.489 L 221.000 294.600 220.878 296.732 C 220.695 299.938,220.814 300.000,227.169 300.000 C 233.666 300.000,233.600 299.961,233.600 303.831 C 233.600 307.595,233.670 307.555,226.773 307.689 L 221.000 307.800 221.000 312.000 L 221.000 316.200 226.800 316.401 C 233.761 316.643,233.600 316.563,233.600 319.775 C 233.600 322.915,233.979 323.281,237.066 323.121 L 239.400 323.000 239.600 305.200 C 239.710 295.410,239.946 287.175,240.124 286.900 C 240.338 286.569,241.520 286.400,243.614 286.400 L 246.781 286.400 248.391 288.436 C 249.276 289.556,250.000 290.628,250.000 290.818 C 250.000 291.188,251.132 292.923,252.861 295.202 C 253.886 296.554,254.850 298.091,256.245 300.600 C 256.611 301.260,257.028 301.890,257.170 302.000 C 257.591 302.327,260.322 306.590,260.845 307.738 C 262.073 310.434,262.390 308.185,262.396 296.733 C 262.401 285.548,262.090 286.400,266.163 286.400 C 270.781 286.400,270.400 284.746,270.400 304.800 C 270.400 317.831,270.521 322.361,270.880 322.720 C 271.395 323.235,277.725 323.395,279.955 322.949 L 281.210 322.698 281.105 308.649 L 281.000 294.600 278.210 294.400 C 274.611 294.142,273.274 291.415,274.790 287.426 L 275.180 286.400 284.714 286.400 C 295.559 286.400,295.563 286.401,295.890 289.301 C 296.307 293.001,295.351 294.400,292.404 294.400 C 288.926 294.400,289.200 293.184,289.200 308.629 C 289.200 324.593,288.784 323.310,293.901 323.117 C 297.534 322.980,297.739 322.687,300.628 313.517 C 300.954 312.482,301.396 311.526,301.610 311.394 C 301.825 311.261,302.006 310.848,302.013 310.476 C 302.019 310.104,302.468 308.900,303.009 307.800 C 303.550 306.700,303.994 305.581,303.996 305.314 C 303.998 305.046,304.254 304.236,304.563 303.514 C 304.873 302.791,305.700 300.670,306.401 298.800 C 307.102 296.930,307.838 295.229,308.037 295.020 C 308.237 294.811,308.400 294.358,308.400 294.014 C 308.400 293.670,308.732 292.761,309.139 291.994 C 309.545 291.227,310.008 290.060,310.168 289.400 C 310.745 287.023,311.790 286.400,315.200 286.400 C 318.612 286.400,319.662 287.027,320.226 289.400 C 320.382 290.060,320.645 290.780,320.810 291.000 C 321.232 291.563,322.947 296.015,324.201 299.800 C 324.783 301.560,325.633 303.810,326.088 304.800 C 328.056 309.079,328.835 311.125,329.805 314.559 C 330.110 315.637,330.548 316.708,330.779 316.939 C 331.011 317.171,331.200 317.605,331.200 317.905 C 331.200 318.204,331.694 319.473,332.297 320.725 C 333.304 322.813,333.405 323.459,333.525 328.600 C 333.670 334.799,333.836 335.200,336.248 335.200 C 338.389 335.200,338.800 335.977,338.800 340.029 C 338.800 344.031,338.868 344.095,341.286 342.395 C 342.229 341.732,344.440 340.195,346.200 338.981 C 347.960 337.766,349.940 336.330,350.600 335.791 L 351.800 334.811 351.800 304.225 C 351.800 284.135,351.661 273.501,351.395 273.235 C 351.129 272.969,332.958 272.735,298.395 272.552 C 269.468 272.398,245.350 272.151,244.800 272.003 L 243.800 271.733 243.865 266.367 C 244.009 254.579,245.246 251.724,255.200 240.210 C 261.940 232.415,265.097 228.227,266.191 225.632 C 266.802 224.184,267.639 222.268,268.051 221.374 C 268.463 220.479,268.806 219.489,268.814 219.174 C 268.821 218.858,269.175 217.880,269.600 217.000 C 270.025 216.120,270.382 215.130,270.393 214.800 C 270.424 213.909,272.603 207.243,273.466 205.400 C 274.462 203.274,277.445 198.862,285.494 187.613 C 288.757 183.051,289.457 180.323,289.960 170.200 C 290.189 165.580,290.557 160.270,290.778 158.400 C 291.223 154.624,291.983 146.456,292.275 142.299 C 292.689 136.434,286.927 126.665,280.708 122.687 C 278.084 121.008,277.560 120.301,276.430 116.913 C 275.321 113.589,275.352 113.358,277.181 111.375 C 278.556 109.883,278.719 109.512,278.434 108.519 C 277.299 104.560,274.838 102.080,270.000 100.018 C 268.350 99.314,266.433 98.483,265.740 98.170 C 265.046 97.856,264.231 97.600,263.929 97.600 C 263.626 97.600,263.021 97.350,262.585 97.044 C 258.692 94.318,252.542 93.566,249.000 95.384 M254.886 98.546 C 255.609 98.846,257.730 99.583,259.600 100.184 C 263.201 101.341,264.523 101.878,267.899 103.557 C 270.401 104.801,270.421 104.885,268.507 106.186 C 266.789 107.353,265.754 107.442,263.731 106.597 C 261.369 105.610,258.469 105.482,253.673 106.152 C 246.414 107.166,243.826 104.417,248.400 100.552 C 251.572 97.871,252.541 97.571,254.886 98.546 M235.230 103.811 C 238.691 105.134,239.238 106.043,238.050 108.497 C 236.693 111.299,234.844 113.100,233.000 113.416 C 232.120 113.567,231.006 113.936,230.525 114.238 C 230.044 114.539,228.803 114.975,227.766 115.208 C 223.494 116.165,222.881 117.211,222.180 124.744 C 221.880 127.965,221.461 132.310,221.249 134.400 C 221.037 136.490,220.736 143.198,220.579 149.308 L 220.295 160.415 221.947 162.771 C 224.168 165.938,224.054 166.803,221.600 165.400 C 221.050 165.086,220.141 164.822,219.580 164.814 C 217.357 164.783,217.019 160.323,218.203 146.600 C 218.561 142.454,218.791 134.859,218.795 127.140 L 218.800 114.479 216.953 112.023 C 214.828 109.195,214.813 109.244,218.565 106.466 C 224.037 102.414,229.356 101.567,235.230 103.811 M244.800 112.033 C 246.670 112.699,248.767 113.391,249.459 113.570 C 250.152 113.750,251.137 114.190,251.648 114.549 C 252.160 114.907,252.826 115.200,253.129 115.200 C 253.431 115.200,254.246 115.467,254.940 115.793 C 255.633 116.120,257.010 116.647,258.000 116.964 C 260.612 117.803,263.225 118.749,264.600 119.355 C 265.260 119.646,266.610 120.244,267.600 120.683 C 268.590 121.123,270.480 121.896,271.800 122.402 C 277.858 124.724,276.311 127.250,269.332 126.431 C 267.314 126.194,263.959 126.000,261.875 126.000 C 257.551 126.000,257.600 126.040,257.600 122.549 C 257.600 120.231,256.443 118.400,254.977 118.400 C 254.157 118.400,247.846 116.513,246.140 115.758 C 245.446 115.451,244.634 115.200,244.334 115.200 C 244.034 115.200,243.097 114.829,242.251 114.376 C 240.474 113.423,240.460 113.431,239.515 115.918 C 238.245 119.264,238.909 127.474,240.622 129.600 C 240.888 129.930,241.238 130.635,241.401 131.167 C 242.214 133.826,251.637 140.800,254.417 140.800 C 255.225 140.800,262.014 144.024,266.200 146.395 C 267.740 147.268,269.669 148.346,270.487 148.792 C 271.752 149.482,273.158 151.085,272.732 151.351 C 271.109 152.368,267.600 155.868,267.600 156.472 C 267.600 156.908,268.199 158.195,268.930 159.332 C 272.353 164.653,272.374 164.798,269.700 164.805 C 266.497 164.815,265.891 165.113,266.142 166.556 C 267.836 176.287,267.231 179.247,264.090 176.598 C 252.977 167.228,250.587 159.597,255.409 148.886 C 255.734 148.164,255.994 146.904,255.986 146.086 L 255.972 144.600 249.949 141.606 C 240.576 136.946,236.541 132.634,234.837 125.460 C 233.650 120.465,233.980 119.006,237.426 114.000 C 239.967 110.309,239.963 110.311,244.800 112.033 M209.200 113.156 C 212.289 114.245,212.800 114.616,212.800 115.769 C 212.800 117.484,212.249 117.600,204.107 117.600 L 196.373 117.600 195.083 118.900 C 193.620 120.375,191.196 123.919,191.207 124.569 C 191.223 125.559,192.415 132.235,192.778 133.370 C 192.995 134.046,193.354 136.088,193.576 137.907 C 193.798 139.726,194.156 141.545,194.373 141.949 C 194.589 142.353,194.873 143.925,195.005 145.442 C 195.136 146.959,195.492 149.730,195.797 151.600 C 196.101 153.470,196.551 157.880,196.795 161.400 C 197.269 168.226,198.163 173.640,199.054 175.086 C 200.382 177.242,199.165 178.394,197.154 176.884 C 196.629 176.490,195.734 175.967,195.163 175.722 C 192.838 174.720,192.018 169.312,189.052 135.449 C 188.497 129.105,188.480 129.078,184.099 127.231 C 181.227 126.021,180.800 125.696,180.800 124.722 C 180.800 124.048,182.346 120.996,183.294 119.800 C 183.934 118.993,185.600 116.358,185.600 116.154 C 185.600 114.862,188.174 112.429,189.704 112.275 C 195.151 111.727,206.617 112.245,209.200 113.156 M176.419 129.197 C 181.504 130.270,183.490 131.341,184.086 133.331 C 184.632 135.152,184.096 135.745,182.252 135.357 C 178.409 134.548,170.100 135.500,168.690 136.910 C 166.565 139.035,168.206 152.764,170.990 156.162 C 172.153 157.581,172.537 158.550,173.161 161.643 C 174.430 167.927,174.566 181.950,173.329 178.878 C 173.213 178.590,172.807 178.050,172.427 177.678 C 171.291 176.565,170.070 172.427,169.808 168.800 C 169.543 165.147,168.148 160.281,166.568 157.502 C 166.036 156.566,165.326 155.260,164.990 154.600 C 162.495 149.688,159.467 144.988,158.577 144.646 C 157.642 144.288,157.200 144.343,157.200 144.820 C 157.200 145.419,154.776 151.497,153.779 153.400 L 152.940 155.000 149.970 155.200 L 147.000 155.400 147.131 157.791 C 147.203 159.105,147.504 160.635,147.801 161.191 C 148.098 161.746,148.899 163.396,149.583 164.857 C 150.266 166.319,151.404 168.299,152.112 169.257 C 153.680 171.379,153.881 174.323,152.580 176.106 C 151.589 177.464,151.440 177.457,149.544 175.956 C 148.455 175.093,147.702 174.780,147.087 174.933 C 143.034 175.943,141.624 176.359,140.847 176.775 C 138.727 177.910,137.773 173.977,138.134 165.585 C 138.663 153.267,138.502 153.758,144.437 146.421 C 145.069 145.639,147.125 143.020,149.005 140.600 C 157.226 130.018,157.193 130.052,159.600 129.367 C 160.810 129.023,161.980 128.679,162.200 128.603 C 163.670 128.091,173.027 128.482,176.419 129.197 M248.892 169.481 C 255.098 171.956,258.018 182.781,254.212 189.200 C 252.747 191.671,252.300 192.304,249.703 195.600 C 249.096 196.370,245.694 199.880,242.142 203.400 C 236.874 208.621,235.591 210.114,235.177 211.505 C 234.899 212.442,234.430 213.409,234.135 213.654 C 233.841 213.898,233.600 214.366,233.600 214.695 C 233.600 215.950,230.457 220.863,228.600 222.510 C 226.643 224.245,223.871 225.265,219.397 225.893 C 212.655 226.841,210.507 225.964,207.871 221.186 C 204.394 214.883,208.134 193.874,213.218 191.153 C 214.024 190.722,215.960 189.768,217.438 189.074 C 218.642 188.508,221.535 185.470,222.514 183.742 C 225.670 178.169,229.811 174.265,236.000 171.025 C 240.019 168.921,245.763 168.233,248.892 169.481 M151.864 189.300 C 152.035 189.575,152.127 190.175,152.068 190.634 C 151.906 191.887,152.610 192.205,157.200 192.950 C 159.510 193.324,162.210 193.907,163.200 194.244 C 164.190 194.581,165.671 195.045,166.492 195.275 C 169.805 196.204,170.348 197.728,168.809 201.775 C 167.415 205.443,168.276 205.845,178.200 206.158 C 190.289 206.539,190.515 206.659,190.552 212.722 C 190.585 218.129,188.091 221.405,178.723 228.261 C 177.775 228.954,175.041 230.527,172.646 231.756 C 170.252 232.985,168.092 234.149,167.846 234.342 C 167.601 234.535,166.230 235.198,164.800 235.816 C 161.571 237.211,161.444 237.322,161.737 238.492 C 161.950 239.342,164.761 241.600,165.605 241.600 C 165.789 241.600,166.498 242.071,167.182 242.646 C 168.687 243.913,168.598 244.348,166.109 247.909 L 164.318 250.471 165.364 251.562 C 166.239 252.476,170.937 255.127,176.012 257.572 C 177.304 258.194,177.562 259.318,176.655 260.369 C 176.049 261.071,174.594 264.744,174.842 264.947 C 174.929 265.018,176.620 265.925,178.600 266.962 C 182.845 269.187,185.201 271.100,184.354 271.637 C 183.402 272.240,158.677 272.091,157.838 271.477 C 157.184 270.999,157.160 270.646,157.556 267.377 C 158.219 261.913,157.458 258.051,155.142 255.127 C 154.463 254.270,153.743 252.834,153.541 251.936 C 152.978 249.430,150.984 245.712,148.427 242.400 C 146.506 239.911,143.989 236.310,142.727 234.246 C 142.168 233.330,140.825 229.295,140.050 226.200 C 139.609 224.440,138.966 221.872,138.620 220.493 C 138.275 219.113,137.816 216.282,137.600 214.201 C 137.384 212.119,137.030 209.647,136.814 208.708 C 135.452 202.806,136.453 195.128,138.826 193.268 C 141.713 191.005,151.140 188.136,151.864 189.300 M75.183 294.763 C 74.005 295.497,74.366 300.098,75.637 300.545 C 79.565 301.927,83.259 298.422,81.054 295.406 C 80.432 294.555,76.251 294.097,75.183 294.763 M313.813 301.078 C 313.656 301.915,313.382 302.780,313.202 303.000 C 313.022 303.220,312.567 304.466,312.189 305.770 C 311.289 308.878,311.760 309.327,315.693 309.118 C 318.941 308.945,319.450 308.571,318.614 306.968 C 318.279 306.326,318.004 305.521,318.002 305.180 C 318.001 304.839,317.807 304.367,317.572 304.132 C 317.336 303.896,316.921 302.825,316.648 301.752 C 315.967 299.069,314.264 298.665,313.813 301.078 M248.267 303.467 C 247.624 304.109,247.974 322.704,248.633 322.957 C 249.696 323.365,259.602 323.227,260.414 322.793 C 261.161 322.393,261.161 322.361,260.399 321.093 C 259.972 320.382,259.326 319.260,258.963 318.600 C 258.601 317.940,257.775 316.680,257.129 315.800 C 255.166 313.128,252.406 308.631,252.403 308.100 C 252.401 307.825,252.243 307.600,252.051 307.600 C 251.859 307.600,251.094 306.614,250.351 305.408 C 248.990 303.199,248.754 302.980,248.267 303.467 M75.067 311.467 C 74.920 311.613,74.800 314.127,74.800 317.053 C 74.800 323.182,74.813 323.204,78.474 323.194 C 82.303 323.183,82.332 322.879,79.061 317.068 C 77.926 315.051,76.776 312.905,76.507 312.300 C 76.021 311.209,75.580 310.954,75.067 311.467 M306.856 319.436 C 305.360 323.343,304.985 323.187,315.913 323.195 C 324.935 323.201,325.169 323.126,323.873 320.648 C 323.515 319.961,323.041 318.905,322.821 318.300 L 322.420 317.200 315.065 317.200 L 307.711 317.200 306.856 319.436 " stroke="none" fill="#333f55" fill-rule="evenodd"></path><path id="path2" d="M0.000 200.000 L 0.000 400.000 200.000 400.000 L 400.000 400.000 400.000 200.000 L 400.000 0.000 200.000 0.000 L 0.000 0.000 0.000 200.000 M221.600 40.674 C 223.470 41.130,226.530 41.809,228.400 42.184 C 234.440 43.395,237.843 44.307,239.800 45.240 C 240.680 45.659,241.798 46.002,242.285 46.001 C 242.772 46.000,244.084 46.360,245.200 46.800 C 246.316 47.240,247.541 47.600,247.921 47.600 C 248.301 47.600,249.239 47.936,250.006 48.347 C 250.773 48.757,251.973 49.219,252.672 49.372 C 253.372 49.526,254.159 49.910,254.421 50.226 C 254.683 50.542,255.191 50.801,255.549 50.803 C 255.907 50.804,256.740 51.163,257.400 51.600 C 258.060 52.037,258.848 52.396,259.152 52.397 C 259.942 52.401,267.045 55.932,267.595 56.594 C 267.848 56.899,268.581 57.264,269.223 57.405 C 269.865 57.546,270.495 57.830,270.623 58.037 C 270.750 58.243,271.427 58.684,272.127 59.017 C 273.580 59.707,274.293 60.137,276.757 61.808 C 277.724 62.464,278.804 63.182,279.157 63.405 C 281.124 64.644,282.487 65.609,285.071 67.594 C 286.651 68.807,288.766 70.406,289.771 71.147 C 290.777 71.887,291.600 72.652,291.600 72.847 C 291.600 73.041,291.782 73.200,292.005 73.200 C 292.909 73.200,309.200 89.254,309.200 90.145 C 309.200 90.230,309.841 90.997,310.624 91.850 C 311.408 92.702,312.649 94.300,313.382 95.400 C 314.116 96.500,315.140 97.859,315.658 98.419 C 316.658 99.502,318.800 102.630,318.800 103.009 C 318.800 103.133,319.475 104.178,320.300 105.331 C 321.125 106.485,322.018 107.782,322.284 108.214 C 323.848 110.754,324.846 112.645,325.048 113.450 C 325.175 113.955,325.509 114.558,325.791 114.792 C 326.575 115.443,331.600 125.841,331.600 126.812 C 331.600 127.101,331.856 127.621,332.169 127.969 C 332.482 128.316,333.031 129.410,333.390 130.400 C 334.906 134.586,336.400 139.385,336.400 140.068 C 336.400 140.472,336.760 141.475,337.200 142.296 C 337.640 143.116,338.000 144.157,338.000 144.608 C 338.000 145.059,338.360 146.452,338.800 147.704 C 339.240 148.956,339.600 150.402,339.600 150.917 C 339.600 151.433,339.871 152.767,340.202 153.881 C 340.533 154.995,341.085 158.313,341.428 161.253 C 341.772 164.194,342.210 167.860,342.402 169.400 C 342.859 173.075,342.835 193.522,342.370 196.600 C 342.170 197.920,341.734 201.340,341.401 204.200 C 341.068 207.060,340.546 210.300,340.241 211.400 C 339.936 212.500,339.579 214.141,339.447 215.047 C 339.315 215.953,338.937 217.213,338.606 217.847 C 338.276 218.481,338.003 219.450,338.000 220.000 C 337.997 220.550,337.713 221.540,337.367 222.200 C 337.022 222.860,336.556 224.386,336.332 225.592 C 336.109 226.797,335.672 228.274,335.363 228.872 C 335.053 229.471,334.800 230.264,334.800 230.636 C 334.800 231.008,334.420 232.142,333.957 233.156 C 333.493 234.170,332.751 235.810,332.308 236.800 C 331.865 237.790,331.165 239.266,330.751 240.079 C 330.338 240.893,330.000 241.794,330.000 242.083 C 330.000 242.917,326.392 249.767,325.766 250.120 C 325.455 250.296,325.200 250.691,325.200 250.999 C 325.200 251.509,323.744 254.546,322.803 256.000 C 318.372 262.842,315.076 267.600,314.766 267.600 C 314.551 267.600,314.260 267.915,314.119 268.300 C 313.979 268.685,313.534 269.429,313.132 269.954 C 312.729 270.479,312.400 271.064,312.400 271.254 C 312.400 271.444,321.207 271.600,331.971 271.600 C 349.230 271.600,351.617 271.674,352.171 272.229 C 353.267 273.324,353.112 334.888,352.011 335.989 C 351.081 336.919,345.341 341.200,345.024 341.200 C 344.904 341.200,343.635 342.043,342.203 343.073 L 339.600 344.945 339.600 352.193 C 339.600 357.296,339.458 359.582,339.120 359.920 C 338.162 360.878,62.528 360.586,62.014 359.626 C 61.777 359.183,61.600 356.055,61.600 352.309 L 61.600 345.765 60.036 344.282 C 59.175 343.467,58.303 342.800,58.098 342.800 C 57.892 342.800,57.398 342.440,57.000 342.000 C 56.602 341.560,56.056 341.200,55.786 341.200 C 55.517 341.200,54.291 340.435,53.063 339.500 C 51.835 338.565,50.114 337.301,49.238 336.691 C 47.063 335.175,47.142 336.554,47.280 302.468 C 47.397 273.570,47.422 272.719,48.176 272.168 C 48.822 271.696,52.221 271.600,68.276 271.600 C 81.393 271.600,87.600 271.466,87.600 271.184 C 87.600 270.729,86.572 269.192,84.400 266.400 C 82.611 264.100,81.200 262.087,81.200 261.836 C 81.200 261.728,80.615 260.802,79.900 259.777 C 77.758 256.707,77.227 255.861,76.605 254.527 C 76.279 253.827,75.849 253.154,75.650 253.031 C 75.451 252.908,75.165 252.311,75.013 251.704 C 74.862 251.097,74.496 250.330,74.201 250.000 C 73.535 249.255,70.000 242.355,70.001 241.804 C 70.002 241.582,69.608 240.590,69.126 239.600 C 68.644 238.610,67.898 236.990,67.467 236.000 C 67.036 235.010,66.445 233.660,66.153 233.000 C 65.218 230.886,63.600 225.530,63.600 224.547 C 63.600 224.025,63.240 222.925,62.800 222.104 C 62.360 221.284,61.999 220.159,61.998 219.606 C 61.996 219.053,61.726 218.085,61.398 217.455 C 61.070 216.826,60.615 215.116,60.387 213.655 C 60.160 212.195,59.801 210.460,59.591 209.800 C 59.253 208.740,58.695 204.455,57.587 194.400 C 57.152 190.448,57.163 174.213,57.603 170.400 C 57.794 168.750,58.224 164.962,58.559 161.981 C 58.894 159.001,59.445 155.498,59.784 154.197 C 60.123 152.896,60.400 151.426,60.400 150.931 C 60.400 150.435,60.760 149.116,61.200 148.000 C 61.640 146.884,62.000 145.569,62.000 145.079 C 62.000 144.589,62.360 143.516,62.800 142.696 C 63.240 141.875,63.600 140.759,63.600 140.216 C 63.600 139.674,63.960 138.316,64.400 137.200 C 64.840 136.084,65.200 134.882,65.200 134.529 C 65.200 134.176,65.580 133.058,66.043 132.044 C 66.507 131.030,67.249 129.390,67.692 128.400 C 68.135 127.410,68.835 125.934,69.249 125.121 C 69.662 124.307,70.000 123.406,70.000 123.117 C 70.000 122.283,73.608 115.433,74.234 115.080 C 74.545 114.904,74.800 114.505,74.800 114.192 C 74.800 113.205,77.195 108.899,79.900 105.023 C 80.615 103.998,81.200 103.088,81.200 103.000 C 81.200 102.643,83.678 99.201,84.799 98.001 C 85.460 97.294,86.000 96.652,86.000 96.575 C 86.000 96.251,88.170 93.275,89.530 91.734 C 90.338 90.818,91.720 89.202,92.600 88.143 C 94.683 85.636,103.271 77.053,105.750 75.000 C 106.813 74.120,108.519 72.638,109.541 71.707 C 110.563 70.776,111.519 70.011,111.665 70.007 C 111.811 70.003,113.381 68.875,115.153 67.500 C 117.927 65.349,121.336 62.991,125.532 60.320 C 126.119 59.947,127.770 59.059,129.200 58.347 C 130.630 57.635,132.070 56.831,132.400 56.559 C 133.319 55.803,140.123 52.400,140.717 52.400 C 141.006 52.400,141.907 52.054,142.721 51.630 C 143.534 51.207,145.010 50.504,146.000 50.069 C 146.990 49.633,148.630 48.899,149.644 48.438 C 150.658 47.977,151.776 47.600,152.129 47.600 C 152.482 47.600,153.684 47.240,154.800 46.800 C 155.916 46.360,157.274 46.000,157.816 46.000 C 158.359 46.000,159.475 45.640,160.296 45.200 C 161.116 44.760,162.205 44.400,162.714 44.400 C 163.223 44.400,164.130 44.147,164.728 43.837 C 165.327 43.527,167.343 42.995,169.208 42.654 C 171.074 42.314,174.220 41.643,176.200 41.165 C 182.117 39.736,183.107 39.680,201.000 39.764 C 216.878 39.839,218.461 39.909,221.600 40.674 M168.749 287.500 C 168.222 287.885,167.433 288.397,166.995 288.637 C 165.499 289.460,163.866 292.401,163.683 294.599 C 163.386 298.192,165.065 301.005,170.010 305.195 C 176.202 310.442,178.000 312.544,178.000 314.538 C 178.000 319.597,169.886 320.507,167.638 315.700 C 167.145 314.646,166.563 314.581,164.926 315.397 C 162.051 316.831,162.119 318.652,165.148 321.362 C 167.456 323.426,166.140 324.400,161.043 324.400 C 155.114 324.400,155.600 326.056,155.600 305.846 C 155.600 286.919,155.703 287.585,152.769 287.613 C 149.861 287.640,150.000 286.732,150.000 305.674 L 150.000 322.661 149.074 323.530 C 146.581 325.873,142.800 324.083,142.800 320.560 C 142.800 318.217,142.258 318.000,136.418 318.000 C 130.661 318.000,129.983 317.521,131.565 314.570 C 132.024 313.713,132.400 312.759,132.400 312.450 C 132.400 311.880,133.449 309.415,134.837 306.721 C 135.257 305.907,135.600 305.021,135.600 304.752 C 135.600 304.483,135.856 303.979,136.169 303.631 C 136.709 303.033,137.062 302.207,138.581 298.000 C 138.938 297.010,139.832 294.940,140.568 293.400 C 143.511 287.237,143.997 287.600,132.800 287.600 C 122.946 287.600,122.800 287.640,122.800 290.371 C 122.800 292.774,122.858 292.800,128.251 292.800 C 133.238 292.800,135.845 294.303,133.800 296.000 C 133.470 296.274,133.200 296.755,133.200 297.070 C 133.200 297.384,132.840 298.352,132.400 299.221 C 131.960 300.089,131.240 301.511,130.800 302.379 C 130.360 303.248,130.000 304.247,130.000 304.600 C 130.000 304.953,129.614 305.997,129.142 306.921 C 127.110 310.901,126.800 311.588,126.800 312.117 C 126.800 312.425,126.440 313.002,126.000 313.400 C 125.560 313.798,125.199 314.501,125.198 314.962 C 125.196 315.423,124.946 316.278,124.641 316.861 C 124.337 317.445,123.860 318.615,123.582 319.461 C 122.362 323.180,120.501 324.854,118.329 324.187 C 116.706 323.689,116.400 323.178,116.400 320.965 C 116.400 318.143,116.074 318.000,109.640 318.000 C 103.273 318.000,103.530 318.272,103.687 311.703 L 103.800 307.000 109.600 306.800 C 116.357 306.567,116.400 306.550,116.400 304.056 C 116.400 301.284,116.211 301.200,110.000 301.200 C 103.504 301.200,103.598 301.258,103.606 297.220 C 103.615 292.876,103.377 293.034,110.284 292.800 L 116.200 292.600 116.321 290.498 C 116.433 288.549,116.366 288.367,115.395 287.998 C 113.837 287.406,98.682 287.478,98.080 288.080 C 97.722 288.438,97.598 292.883,97.594 305.580 C 97.591 314.941,97.456 322.798,97.294 323.040 C 96.426 324.340,93.291 324.809,90.941 323.989 C 89.984 323.656,89.399 322.847,87.831 319.689 C 86.768 317.550,85.746 315.530,85.559 315.200 C 85.372 314.870,84.384 313.102,83.362 311.272 L 81.504 307.944 82.599 306.801 C 83.201 306.172,84.168 305.461,84.747 305.221 C 89.726 303.153,89.192 292.481,83.938 289.051 C 82.577 288.162,71.668 287.245,69.330 287.822 L 67.800 288.200 67.686 320.000 C 67.623 337.490,67.677 352.385,67.804 353.100 L 68.036 354.400 199.975 354.400 C 319.918 354.400,331.936 354.342,332.157 353.767 C 332.291 353.419,332.400 346.464,332.400 338.311 C 332.400 322.018,332.640 324.009,329.981 318.200 C 329.578 317.320,328.878 315.565,328.424 314.300 C 327.971 313.035,327.240 311.052,326.800 309.892 C 326.360 308.733,326.000 307.554,326.000 307.272 C 326.000 306.989,325.662 306.093,325.248 305.279 C 323.548 301.933,322.414 299.081,321.402 295.600 C 321.114 294.610,320.592 293.260,320.242 292.600 C 319.891 291.940,319.604 291.099,319.602 290.731 C 319.591 287.624,313.834 286.298,311.820 288.938 C 311.259 289.674,310.800 290.583,310.800 290.959 C 310.800 291.334,310.462 292.307,310.048 293.121 C 308.568 296.033,307.987 297.430,307.435 299.400 C 306.752 301.836,305.791 304.526,304.933 306.400 C 302.744 311.180,301.200 315.157,301.200 316.014 C 301.200 316.343,300.868 317.239,300.461 318.006 C 300.055 318.773,299.596 319.920,299.440 320.555 C 299.285 321.190,298.696 322.315,298.131 323.055 L 297.105 324.400 293.526 324.400 C 290.125 324.400,288.562 324.022,287.906 323.040 C 287.744 322.798,287.609 316.365,287.606 308.744 C 287.599 292.531,287.435 293.209,291.434 292.885 C 294.081 292.670,294.385 292.412,294.394 290.376 C 294.406 287.561,294.442 287.571,284.599 287.692 L 275.800 287.800 275.800 290.200 L 275.800 292.600 278.194 292.723 C 282.242 292.930,282.000 291.918,282.000 308.633 C 282.000 326.051,282.649 324.400,275.800 324.400 C 268.566 324.400,269.200 326.228,269.200 305.360 C 269.200 289.029,269.173 288.413,268.426 288.014 C 267.402 287.466,265.482 287.489,264.219 288.064 L 263.200 288.528 263.200 299.184 C 263.200 309.950,263.092 310.800,261.728 310.800 C 261.447 310.800,260.848 310.125,260.397 309.300 C 259.946 308.475,259.222 307.260,258.788 306.600 C 258.354 305.940,257.731 304.827,257.405 304.127 C 257.079 303.427,256.654 302.757,256.461 302.638 C 256.268 302.518,255.248 301.111,254.196 299.510 C 253.143 297.910,251.949 296.112,251.541 295.516 C 251.134 294.920,250.800 294.305,250.800 294.150 C 250.800 293.994,250.526 293.582,250.190 293.234 C 249.334 292.344,247.600 289.639,247.600 289.193 C 247.600 287.813,241.145 286.923,240.643 288.233 C 240.509 288.581,240.400 296.645,240.400 306.153 C 240.400 325.794,240.676 324.400,236.782 324.400 C 233.490 324.400,232.800 323.813,232.800 321.013 C 232.800 318.232,232.370 318.028,226.474 318.013 C 219.312 317.994,219.215 317.913,219.206 311.980 C 219.198 306.556,218.885 306.800,225.851 306.800 C 232.321 306.800,232.800 306.607,232.800 304.000 C 232.800 301.406,232.303 301.200,226.033 301.200 C 219.347 301.200,219.200 301.112,219.200 297.098 C 219.200 293.127,219.761 292.800,226.574 292.800 C 232.515 292.800,232.800 292.680,232.800 290.184 C 232.800 287.764,232.188 287.600,223.155 287.600 C 212.780 287.600,214.000 285.234,214.000 305.360 C 214.000 321.942,213.983 322.314,213.162 323.357 L 212.324 324.423 207.073 324.311 C 200.217 324.166,200.813 325.653,200.806 308.674 C 200.799 292.548,200.733 292.818,204.651 292.806 C 207.100 292.799,207.700 292.242,207.526 290.137 C 207.332 287.794,206.629 287.613,197.726 287.606 C 188.199 287.599,187.917 287.683,188.079 290.498 L 188.200 292.600 190.686 292.719 C 194.951 292.922,194.800 292.333,194.800 308.784 L 194.800 322.661 193.874 323.530 C 192.839 324.503,182.418 324.866,180.774 323.986 C 179.810 323.470,179.772 322.215,180.700 321.523 C 186.551 317.154,184.025 308.767,174.800 301.938 C 169.867 298.287,168.268 295.508,169.823 293.289 C 170.908 291.740,174.785 292.006,176.947 293.778 L 178.629 295.156 180.415 293.748 C 182.734 291.919,182.748 291.826,180.937 290.168 C 177.264 286.802,171.448 285.529,168.749 287.500 M80.355 293.577 C 84.683 295.785,84.063 300.632,79.327 301.615 C 74.568 302.603,73.200 301.685,73.200 297.505 C 73.200 293.050,76.149 291.431,80.355 293.577 M317.283 299.600 C 317.703 300.810,318.309 302.610,318.630 303.600 C 318.951 304.590,319.480 305.967,319.807 306.660 C 321.337 309.910,320.657 310.451,315.211 310.314 C 309.137 310.161,309.035 309.971,311.599 303.600 C 312.086 302.390,312.716 300.779,312.998 300.019 C 314.242 296.680,316.203 296.488,317.283 299.600 M248.946 301.229 C 249.526 301.685,250.000 302.217,250.000 302.411 C 250.000 302.718,251.398 305.027,252.294 306.200 C 252.462 306.420,253.123 307.410,253.763 308.400 C 254.402 309.390,255.257 310.688,255.663 311.284 C 256.068 311.880,256.400 312.456,256.400 312.564 C 256.400 312.748,257.127 313.829,259.996 317.914 C 260.658 318.857,261.200 319.719,261.200 319.830 C 261.200 319.941,261.587 320.556,262.060 321.195 C 262.877 322.301,262.887 322.408,262.251 323.379 L 261.582 324.400 255.171 324.400 C 250.207 324.400,248.494 324.262,247.580 323.790 L 246.400 323.179 246.400 312.422 C 246.400 299.516,246.456 299.270,248.946 301.229 M75.513 308.624 C 76.003 308.967,77.414 311.262,78.650 313.724 C 81.569 319.540,82.266 320.826,82.778 321.338 C 84.391 322.951,82.359 324.400,78.485 324.400 C 73.279 324.400,73.214 324.297,73.206 316.074 C 73.199 308.277,73.523 307.230,75.513 308.624 M322.302 316.026 C 324.400 316.757,326.154 322.486,324.720 323.920 C 323.755 324.885,306.169 324.569,305.169 323.569 C 304.643 323.043,304.439 322.493,304.612 322.069 C 304.763 321.701,305.065 320.782,305.283 320.026 C 305.738 318.446,306.674 316.823,307.548 316.100 C 308.315 315.466,320.519 315.404,322.302 316.026 M149.661 328.572 C 152.049 330.124,153.637 332.134,155.211 335.600 C 155.927 337.178,155.562 343.297,154.700 344.158 C 154.315 344.542,154.000 345.153,154.000 345.514 C 154.000 347.684,146.872 352.026,143.372 351.987 C 139.848 351.948,133.102 347.467,132.567 344.810 C 132.455 344.255,132.075 342.771,131.722 341.514 C 131.139 339.431,131.137 339.040,131.709 337.114 C 132.054 335.951,132.435 334.550,132.556 334.000 C 132.786 332.955,135.929 329.194,136.569 329.198 C 136.771 329.199,137.259 328.909,137.652 328.553 C 139.608 326.782,146.925 326.794,149.661 328.572 M170.359 329.014 C 171.041 329.792,171.600 330.607,171.600 330.826 C 171.600 331.045,172.275 332.110,173.100 333.193 C 174.933 335.600,176.400 337.927,176.400 338.428 C 176.400 338.632,176.651 338.800,176.959 338.800 C 177.400 338.800,177.547 337.742,177.659 333.768 C 177.820 328.004,178.113 327.469,180.984 327.682 C 183.107 327.840,183.112 327.871,183.160 339.700 C 183.208 351.515,183.134 351.727,179.233 350.947 C 178.381 350.776,177.767 350.310,177.361 349.525 C 177.029 348.883,176.452 348.020,176.079 347.607 C 174.938 346.347,174.613 345.881,173.283 343.600 C 171.951 341.316,170.643 339.600,170.236 339.600 C 170.106 339.600,170.000 341.918,170.000 344.751 C 170.000 350.410,169.944 350.552,167.542 351.001 C 164.348 351.598,164.400 351.787,164.400 339.466 C 164.400 327.262,164.319 327.600,167.239 327.600 C 168.888 327.600,169.268 327.772,170.359 329.014 M198.171 328.229 C 198.702 328.759,198.800 330.133,198.800 337.029 L 198.800 345.200 200.700 345.206 C 203.776 345.215,204.600 345.848,204.600 348.200 C 204.600 350.818,203.871 351.186,198.674 351.194 C 192.703 351.203,193.200 352.268,193.200 339.466 C 193.200 331.517,193.330 328.430,193.680 328.080 C 194.380 327.380,197.423 327.480,198.171 328.229 M217.520 328.080 C 218.114 328.674,218.197 349.470,217.608 350.400 C 217.138 351.144,213.908 351.153,213.016 350.413 C 212.083 349.639,212.094 329.163,213.029 328.229 C 213.777 327.480,216.820 327.380,217.520 328.080 M233.074 328.470 C 233.583 328.948,234.000 329.503,234.000 329.702 C 234.000 329.902,234.608 330.816,235.350 331.733 C 236.093 332.650,236.995 333.940,237.355 334.600 C 240.733 340.788,241.200 340.648,241.200 333.447 C 241.200 327.929,241.347 327.597,243.780 327.606 C 246.706 327.617,246.587 327.151,246.718 339.121 C 246.852 351.281,246.938 350.933,243.770 350.933 C 241.942 350.933,239.600 349.368,239.600 348.145 C 239.600 347.867,239.374 347.496,239.099 347.320 C 238.614 347.011,236.645 344.215,236.338 343.400 C 234.660 338.949,233.200 339.181,233.198 343.900 C 233.195 348.993,232.738 350.662,231.259 350.987 C 230.051 351.252,228.004 350.644,227.514 349.875 C 226.870 348.862,227.150 329.449,227.823 328.489 C 228.697 327.241,231.755 327.230,233.074 328.470 M269.373 329.311 C 270.088 332.207,269.436 332.984,266.192 333.102 C 262.380 333.241,261.600 333.461,261.600 334.400 C 261.600 335.339,262.380 335.559,266.192 335.698 C 269.436 335.816,270.088 336.593,269.373 339.489 L 269.000 341.000 266.400 341.102 C 262.415 341.259,262.073 341.402,261.765 343.047 C 261.414 344.918,261.864 345.185,265.400 345.200 C 268.911 345.215,269.265 345.450,269.502 347.917 C 269.793 350.950,269.038 351.303,262.633 351.133 C 255.732 350.950,256.230 351.758,256.076 340.487 C 255.889 326.774,255.457 327.535,263.339 327.689 L 269.000 327.800 269.373 329.311 M141.364 333.158 C 139.150 333.721,136.800 336.912,136.800 339.354 C 136.800 346.738,148.681 347.974,149.859 340.713 C 150.686 335.616,146.464 331.861,141.364 333.158 " stroke="none" fill="#fbfbfb" fill-rule="evenodd"></path><path id="path3" d="M48.800 271.958 L 47.800 272.236 47.698 303.801 L 47.595 335.366 48.698 336.290 C 49.304 336.798,50.340 337.505,51.000 337.861 C 51.660 338.217,52.344 338.754,52.520 339.054 C 52.696 339.354,53.073 339.600,53.358 339.600 C 53.643 339.600,54.202 339.960,54.600 340.400 C 54.998 340.840,55.529 341.200,55.781 341.200 C 56.222 341.200,56.857 341.627,59.163 343.474 C 60.366 344.438,62.698 345.205,62.257 344.492 C 62.112 344.258,59.397 342.337,56.223 340.222 C 53.049 338.108,49.991 335.829,49.426 335.158 L 48.400 333.939 48.400 304.169 C 48.400 274.933,48.414 274.386,49.200 273.600 C 49.978 272.822,50.533 272.800,69.167 272.800 C 87.720 272.800,89.600 272.722,89.600 271.957 C 89.600 271.539,50.304 271.540,48.800 271.958 M310.628 271.955 C 310.174 272.688,312.702 272.789,331.710 272.795 L 351.220 272.800 351.620 273.852 C 351.877 274.528,351.980 285.592,351.910 304.863 L 351.800 334.823 350.426 335.912 C 349.086 336.973,345.229 339.696,340.804 342.706 C 338.876 344.017,338.722 344.216,339.543 344.333 C 340.057 344.406,340.866 344.124,341.339 343.707 C 342.102 343.034,343.037 342.388,345.247 341.005 C 347.694 339.474,351.541 336.550,352.300 335.644 C 353.230 334.533,353.006 273.110,352.069 272.262 C 351.247 271.519,311.082 271.221,310.628 271.955 M170.074 286.007 C 165.577 286.945,162.404 290.748,162.404 295.200 C 162.404 299.326,164.532 302.378,171.287 307.943 C 177.220 312.830,178.262 314.924,175.641 316.686 C 173.021 318.447,168.922 316.966,167.896 313.887 C 167.690 313.270,165.637 313.448,164.830 314.153 C 164.484 314.456,163.618 314.999,162.906 315.359 C 160.673 316.490,160.842 318.608,163.382 321.345 C 164.733 322.801,164.627 322.880,161.011 323.112 C 156.422 323.406,156.800 325.048,156.800 304.831 C 156.800 284.826,157.142 286.400,152.800 286.400 C 148.459 286.400,148.800 284.830,148.800 304.800 C 148.800 323.857,148.886 323.200,146.400 323.200 C 144.432 323.200,144.000 322.618,144.000 319.969 C 144.000 316.968,143.856 316.892,137.932 316.734 C 131.893 316.574,131.665 316.363,133.611 312.729 C 133.809 312.360,134.624 310.387,135.422 308.345 C 136.220 306.303,137.126 304.270,137.436 303.827 C 137.746 303.384,138.000 302.761,138.000 302.442 C 138.000 302.124,138.237 301.579,138.526 301.231 C 138.815 300.884,139.928 298.350,141.000 295.600 C 142.072 292.850,143.198 290.302,143.503 289.937 C 143.807 289.573,143.999 288.673,143.928 287.937 L 143.800 286.600 133.154 286.494 C 120.756 286.370,121.400 286.155,121.400 290.400 C 121.400 294.303,121.540 294.400,127.169 294.400 C 133.438 294.400,133.372 294.313,130.990 299.400 C 128.325 305.092,127.600 306.761,127.600 307.214 C 127.600 307.468,127.347 308.154,127.038 308.738 C 126.344 310.049,124.856 313.295,122.153 319.400 C 121.860 320.060,121.450 321.070,121.241 321.645 C 120.292 324.258,117.600 323.255,117.600 320.289 C 117.600 316.708,117.436 316.621,110.433 316.471 L 104.400 316.342 104.400 311.971 L 104.400 307.600 110.226 307.600 C 117.546 307.600,117.600 307.574,117.600 304.048 C 117.600 300.076,117.467 300.000,110.476 300.000 C 104.047 300.000,104.207 300.097,104.474 296.368 L 104.600 294.600 110.498 294.489 C 116.276 294.381,116.409 294.359,117.044 293.388 C 117.869 292.130,117.677 287.347,116.779 286.779 C 115.761 286.135,97.883 286.305,96.976 286.968 C 96.231 287.512,96.195 288.243,96.088 305.052 C 95.966 323.984,96.070 323.183,93.726 323.194 C 91.293 323.206,90.641 322.653,88.852 319.057 C 87.915 317.176,86.751 315.043,86.265 314.318 C 85.779 313.593,84.873 311.859,84.252 310.465 L 83.123 307.929 84.062 307.265 C 84.578 306.899,85.540 306.240,86.200 305.800 C 90.696 302.801,90.765 293.514,86.323 289.293 C 83.675 286.777,68.907 284.943,67.261 286.926 C 66.676 287.631,66.418 335.261,67.000 335.067 C 67.259 334.980,67.436 326.775,67.503 311.804 C 67.576 295.531,67.739 288.515,68.052 288.137 C 69.083 286.895,81.778 287.788,84.380 289.286 C 87.433 291.043,88.855 295.285,87.990 300.056 C 87.547 302.497,85.938 305.200,84.928 305.200 C 84.669 305.200,83.819 305.802,83.039 306.538 L 81.620 307.875 82.789 310.038 C 83.431 311.227,84.158 312.646,84.404 313.192 C 84.649 313.737,84.980 314.277,85.138 314.392 C 85.296 314.506,86.380 316.551,87.547 318.935 C 89.951 323.845,90.983 324.664,94.304 324.289 C 97.786 323.897,97.600 324.951,97.600 305.618 C 97.600 292.884,97.722 288.438,98.080 288.080 C 98.784 287.376,114.782 287.406,115.749 288.113 C 116.290 288.509,116.422 289.081,116.325 290.613 L 116.200 292.600 110.618 292.712 C 103.639 292.852,103.600 292.877,103.600 297.213 C 103.600 301.226,103.480 301.154,110.427 301.289 L 116.200 301.400 116.319 303.888 C 116.463 306.904,116.790 306.765,109.200 306.903 L 103.800 307.000 103.688 311.859 C 103.541 318.246,103.282 318.000,110.149 318.000 C 116.172 318.000,116.397 318.100,116.406 320.780 C 116.421 325.120,120.467 325.648,122.462 321.571 C 124.519 317.368,125.200 315.704,125.200 314.880 C 125.200 314.422,125.371 313.941,125.581 313.812 C 125.920 313.602,126.752 311.953,129.242 306.556 C 129.659 305.652,130.000 304.706,130.000 304.455 C 130.000 304.203,130.360 303.325,130.800 302.504 C 131.240 301.684,131.600 300.716,131.600 300.355 C 131.600 299.994,131.857 299.485,132.170 299.225 C 132.484 298.964,133.056 297.748,133.442 296.522 C 134.407 293.453,134.024 293.200,128.413 293.200 C 123.318 293.200,122.400 292.778,122.400 290.439 C 122.400 287.672,122.667 287.600,132.883 287.600 C 143.960 287.600,143.516 287.337,141.081 292.471 C 140.108 294.522,139.087 296.892,138.812 297.739 C 138.537 298.585,138.063 299.755,137.759 300.339 C 137.454 300.922,137.204 301.704,137.202 302.076 C 137.201 302.448,137.018 302.865,136.795 303.003 C 136.325 303.294,134.514 307.145,133.223 310.600 C 132.729 311.920,131.983 313.665,131.564 314.477 C 130.012 317.488,130.729 318.000,136.501 318.000 C 142.582 318.000,143.200 318.295,143.200 321.200 C 143.200 324.210,146.429 325.600,148.856 323.636 L 149.800 322.871 149.913 305.761 C 150.037 286.822,149.915 287.600,152.769 287.600 C 155.749 287.600,155.600 286.647,155.600 305.651 L 155.600 322.742 156.654 323.571 C 157.725 324.414,162.438 324.754,164.687 324.151 C 166.056 323.784,166.288 322.406,165.146 321.423 C 162.067 318.775,161.998 316.858,164.926 315.397 C 166.596 314.564,166.926 314.632,167.954 316.024 C 171.066 320.233,178.000 319.413,178.000 314.836 C 178.000 312.677,177.042 311.457,171.795 306.939 C 164.796 300.912,163.405 298.806,163.670 294.640 C 164.146 287.158,173.745 284.058,180.200 289.302 C 180.420 289.481,180.897 289.846,181.260 290.114 C 182.740 291.205,182.533 292.225,180.530 293.709 L 178.636 295.111 176.860 293.756 C 173.528 291.211,169.200 292.106,169.200 295.341 C 169.200 296.907,169.909 297.732,174.823 301.886 C 182.478 308.358,183.600 309.978,183.600 314.564 C 183.600 317.286,183.454 318.077,182.800 318.909 C 182.360 319.469,182.000 320.102,182.000 320.317 C 182.000 320.532,181.550 321.003,181.000 321.363 C 179.764 322.173,179.728 322.964,180.889 323.777 C 182.553 324.943,192.572 324.664,193.818 323.418 L 194.800 322.436 194.800 308.998 C 194.800 295.571,194.584 293.304,193.290 293.170 C 193.130 293.153,191.950 293.095,190.667 293.040 C 188.037 292.928,187.615 292.555,187.606 290.329 C 187.595 287.591,187.781 287.543,197.865 287.679 C 207.760 287.813,207.588 287.764,207.588 290.400 C 207.588 292.456,207.176 292.820,204.563 293.077 C 200.946 293.431,201.200 292.242,201.200 308.835 C 201.200 322.996,201.230 323.588,201.974 323.986 C 203.264 324.676,211.660 324.513,212.711 323.777 L 213.600 323.155 213.600 306.039 C 213.600 285.183,212.347 287.600,223.158 287.600 C 232.623 287.600,232.800 287.651,232.800 290.371 C 232.800 292.802,232.807 292.800,226.667 292.801 C 220.014 292.804,219.200 293.261,219.200 296.994 C 219.200 301.009,219.517 301.200,226.167 301.200 C 232.974 301.200,232.800 301.127,232.800 303.996 C 232.800 306.832,232.912 306.787,225.874 306.795 C 218.969 306.802,219.200 306.622,219.200 311.985 C 219.200 317.889,219.331 318.000,226.280 318.000 C 232.392 318.000,232.800 318.176,232.800 320.814 C 232.800 323.620,233.663 324.400,236.771 324.400 C 240.654 324.400,240.400 325.687,240.400 306.004 C 240.400 286.058,240.154 287.597,243.343 287.609 C 246.424 287.620,246.822 287.912,249.395 292.051 C 249.618 292.410,250.628 293.940,251.640 295.451 C 252.652 296.963,253.713 298.650,253.998 299.200 C 254.283 299.750,255.068 300.904,255.743 301.765 C 256.995 303.362,257.159 303.623,259.600 307.919 C 262.593 313.186,262.977 312.245,263.112 299.315 C 263.239 287.193,263.125 287.600,266.414 287.600 C 269.755 287.600,269.600 286.698,269.600 306.122 L 269.600 323.182 270.583 323.826 C 271.858 324.661,280.290 324.524,281.340 323.651 C 282.208 322.929,282.358 295.027,281.500 293.891 C 281.144 293.419,280.252 293.196,278.400 293.114 L 275.800 293.000 275.800 290.400 L 275.800 287.800 284.549 287.692 C 294.446 287.570,294.400 287.557,294.400 290.369 C 294.400 292.761,293.922 293.200,291.320 293.200 C 287.452 293.200,287.600 292.591,287.600 308.556 C 287.600 325.092,287.303 324.108,292.364 324.338 C 297.226 324.559,298.346 323.890,299.635 320.000 C 299.817 319.450,300.523 317.470,301.205 315.600 C 301.886 313.730,302.593 311.623,302.776 310.917 C 302.958 310.212,303.399 309.344,303.754 308.989 C 304.109 308.634,304.400 307.978,304.400 307.533 C 304.400 307.088,304.668 306.246,304.995 305.662 C 305.676 304.444,306.632 301.853,307.415 299.100 C 307.712 298.055,308.235 296.800,308.577 296.311 C 308.920 295.822,309.200 295.034,309.200 294.560 C 309.200 294.086,309.465 293.478,309.789 293.209 C 310.114 292.940,310.496 292.095,310.639 291.331 C 311.297 287.823,316.034 286.073,318.301 288.500 C 319.167 289.428,319.400 289.984,322.007 297.353 C 322.854 299.748,323.739 301.899,323.973 302.133 C 324.208 302.368,324.400 302.950,324.400 303.426 C 324.400 303.902,324.760 304.750,325.200 305.309 C 325.640 305.869,326.000 306.623,326.000 306.985 C 326.000 307.347,326.340 308.399,326.755 309.322 C 327.170 310.245,327.643 311.627,327.807 312.394 C 327.971 313.161,328.334 314.151,328.613 314.594 C 328.893 315.037,329.241 315.973,329.386 316.672 C 329.532 317.372,329.910 318.159,330.226 318.421 C 330.542 318.683,330.801 319.281,330.803 319.749 C 330.804 320.217,331.163 321.140,331.600 321.800 C 332.298 322.854,332.395 323.684,332.397 328.624 C 332.400 333.783,332.960 336.789,333.653 335.361 C 334.349 333.924,333.321 322.874,332.290 320.725 C 331.691 319.473,331.200 318.204,331.200 317.905 C 331.200 317.605,331.011 317.171,330.779 316.939 C 330.548 316.708,330.110 315.637,329.805 314.559 C 328.835 311.125,328.056 309.079,326.088 304.800 C 325.633 303.810,324.783 301.560,324.201 299.800 C 322.947 296.015,321.232 291.563,320.810 291.000 C 320.645 290.780,320.382 290.060,320.226 289.400 C 319.662 287.027,318.612 286.400,315.200 286.400 C 311.790 286.400,310.745 287.023,310.168 289.400 C 310.008 290.060,309.545 291.227,309.139 291.994 C 308.732 292.761,308.400 293.670,308.400 294.014 C 308.400 294.358,308.237 294.811,308.037 295.020 C 307.838 295.229,307.102 296.930,306.401 298.800 C 305.700 300.670,304.873 302.791,304.563 303.514 C 304.254 304.236,303.998 305.046,303.996 305.314 C 303.994 305.581,303.550 306.700,303.009 307.800 C 302.468 308.900,302.019 310.104,302.013 310.476 C 302.006 310.848,301.825 311.261,301.610 311.394 C 301.396 311.526,300.954 312.482,300.628 313.517 C 297.739 322.687,297.534 322.980,293.901 323.117 C 288.784 323.310,289.200 324.593,289.200 308.629 C 289.200 293.184,288.926 294.400,292.404 294.400 C 295.351 294.400,296.307 293.001,295.890 289.301 C 295.563 286.401,295.559 286.400,284.714 286.400 L 275.180 286.400 274.790 287.426 C 273.274 291.415,274.611 294.142,278.210 294.400 L 281.000 294.600 281.105 308.649 L 281.210 322.698 279.955 322.949 C 277.725 323.395,271.395 323.235,270.880 322.720 C 270.521 322.361,270.400 317.831,270.400 304.800 C 270.400 284.746,270.781 286.400,266.163 286.400 C 262.090 286.400,262.401 285.548,262.396 296.733 C 262.390 308.185,262.073 310.434,260.845 307.738 C 260.322 306.590,257.591 302.327,257.170 302.000 C 257.028 301.890,256.611 301.260,256.245 300.600 C 254.850 298.091,253.886 296.554,252.861 295.202 C 251.132 292.923,250.000 291.188,250.000 290.818 C 250.000 290.628,249.276 289.556,248.391 288.436 L 246.781 286.400 243.614 286.400 C 241.520 286.400,240.338 286.569,240.124 286.900 C 239.946 287.175,239.710 295.410,239.600 305.200 L 239.400 323.000 237.066 323.121 C 233.979 323.281,233.600 322.915,233.600 319.775 C 233.600 316.563,233.761 316.643,226.800 316.401 L 221.000 316.200 221.000 312.000 L 221.000 307.800 226.773 307.689 C 233.670 307.555,233.600 307.595,233.600 303.831 C 233.600 299.961,233.666 300.000,227.169 300.000 C 220.814 300.000,220.695 299.938,220.878 296.732 L 221.000 294.600 226.773 294.489 C 230.196 294.422,232.760 294.199,233.073 293.940 C 233.762 293.368,233.800 287.560,233.120 286.880 C 232.287 286.047,213.853 286.214,213.149 287.061 C 212.706 287.594,212.578 291.106,212.484 305.218 L 212.369 322.715 211.484 322.952 C 210.327 323.262,204.058 323.258,202.895 322.947 L 201.990 322.704 202.095 308.652 L 202.200 294.600 204.866 294.483 C 208.229 294.334,208.600 293.929,208.600 290.400 C 208.600 286.202,209.147 286.400,197.538 286.400 C 186.115 286.400,187.000 286.061,187.000 290.439 C 187.000 293.954,187.406 294.400,190.606 294.400 C 193.832 294.400,193.600 293.271,193.600 308.984 C 193.600 324.853,194.283 323.331,187.243 323.140 C 181.120 322.974,181.123 322.976,182.935 320.604 C 185.077 317.798,185.385 311.073,183.473 308.847 C 182.063 307.206,176.687 301.955,174.066 299.659 C 170.018 296.113,169.625 295.451,170.814 294.185 C 172.292 292.612,174.710 293.148,177.440 295.655 C 178.533 296.659,179.583 296.270,182.214 293.885 L 184.200 292.086 182.586 290.180 C 179.649 286.710,174.669 285.049,170.074 286.007 M74.894 293.195 C 73.419 293.820,72.682 297.428,73.448 300.283 C 73.727 301.325,75.877 302.161,77.501 301.858 C 78.106 301.746,79.284 301.542,80.119 301.405 C 83.775 300.807,84.245 295.581,80.803 293.802 C 79.368 293.060,76.024 292.716,74.894 293.195 M81.054 295.406 C 83.259 298.422,79.565 301.927,75.637 300.545 C 74.366 300.098,74.005 295.497,75.183 294.763 C 76.251 294.097,80.432 294.555,81.054 295.406 M314.897 297.628 C 314.400 297.820,313.794 298.477,313.551 299.088 C 313.308 299.700,312.769 300.940,312.354 301.844 C 311.940 302.748,311.600 303.694,311.600 303.945 C 311.600 304.197,311.240 305.075,310.800 305.896 C 308.863 309.510,309.736 310.400,315.223 310.400 C 320.449 310.400,321.229 309.804,319.816 306.889 C 319.419 306.070,318.860 304.590,318.573 303.600 C 317.011 298.206,316.317 297.080,314.897 297.628 M316.648 301.752 C 316.921 302.825,317.336 303.896,317.572 304.132 C 317.807 304.367,318.001 304.839,318.002 305.180 C 318.004 305.521,318.279 306.326,318.614 306.968 C 319.450 308.571,318.941 308.945,315.693 309.118 C 311.760 309.327,311.289 308.878,312.189 305.770 C 312.567 304.466,313.022 303.220,313.202 303.000 C 313.382 302.780,313.656 301.915,313.813 301.078 C 314.264 298.665,315.967 299.069,316.648 301.752 M246.643 301.433 C 246.509 301.781,246.400 306.703,246.400 312.371 C 246.400 325.241,245.694 324.150,254.144 324.327 C 262.727 324.506,263.531 324.044,261.300 320.212 C 260.131 318.205,260.043 318.067,257.104 313.683 C 256.061 312.127,254.997 310.392,254.740 309.827 C 254.482 309.262,254.115 308.800,253.923 308.800 C 253.731 308.800,253.445 308.485,253.287 308.100 C 253.129 307.715,252.352 306.410,251.561 305.200 C 250.769 303.990,249.820 302.505,249.452 301.900 C 248.702 300.669,247.042 300.393,246.643 301.433 M250.351 305.408 C 251.094 306.614,251.859 307.600,252.051 307.600 C 252.243 307.600,252.401 307.825,252.403 308.100 C 252.406 308.631,255.166 313.128,257.129 315.800 C 257.775 316.680,258.601 317.940,258.963 318.600 C 259.326 319.260,259.972 320.382,260.399 321.093 C 261.511 322.943,260.787 323.200,254.459 323.200 C 247.256 323.200,248.000 324.350,248.000 313.224 C 248.000 301.930,248.068 301.704,250.351 305.408 M73.614 308.774 C 73.378 309.214,73.200 312.295,73.200 315.929 C 73.200 324.210,73.194 324.200,78.349 324.200 C 83.340 324.200,83.792 323.757,82.104 320.526 C 81.436 319.247,79.876 316.194,78.638 313.742 C 77.348 311.186,75.969 309.010,75.408 308.642 C 74.173 307.833,74.115 307.837,73.614 308.774 M76.507 312.300 C 76.776 312.905,77.926 315.051,79.061 317.068 C 82.332 322.879,82.303 323.183,78.474 323.194 C 74.813 323.204,74.800 323.182,74.800 317.053 C 74.800 314.127,74.920 311.613,75.067 311.467 C 75.580 310.954,76.021 311.209,76.507 312.300 M307.344 316.301 C 305.467 317.530,304.269 322.783,305.646 323.747 C 306.756 324.525,323.033 324.732,324.426 323.986 C 325.565 323.376,325.427 320.991,324.100 318.372 L 323.000 316.200 315.400 316.101 C 311.220 316.047,307.595 316.137,307.344 316.301 M322.821 318.300 C 323.041 318.905,323.515 319.961,323.873 320.648 C 325.169 323.126,324.935 323.201,315.913 323.195 C 304.985 323.187,305.360 323.343,306.856 319.436 L 307.711 317.200 315.065 317.200 L 322.420 317.200 322.821 318.300 " stroke="none" fill="#a4acb3" fill-rule="evenodd"></path><path id="path4" d="M181.800 39.989 C 180.700 40.158,178.180 40.687,176.200 41.165 C 174.220 41.643,171.074 42.314,169.208 42.654 C 167.343 42.995,165.327 43.527,164.728 43.837 C 164.130 44.147,163.223 44.400,162.714 44.400 C 162.205 44.400,161.116 44.760,160.296 45.200 C 159.475 45.640,158.359 46.000,157.816 46.000 C 157.274 46.000,155.916 46.360,154.800 46.800 C 153.684 47.240,152.482 47.600,152.129 47.600 C 151.776 47.600,150.658 47.977,149.644 48.438 C 148.630 48.899,146.990 49.633,146.000 50.069 C 145.010 50.504,143.534 51.207,142.721 51.630 C 141.907 52.054,141.006 52.400,140.717 52.400 C 140.123 52.400,133.319 55.803,132.400 56.559 C 132.070 56.831,130.630 57.635,129.200 58.347 C 127.770 59.059,126.119 59.947,125.532 60.320 C 121.336 62.991,117.927 65.349,115.153 67.500 C 113.381 68.875,111.811 70.003,111.665 70.007 C 111.519 70.011,110.563 70.776,109.541 71.707 C 108.519 72.638,106.813 74.120,105.750 75.000 C 103.271 77.053,94.683 85.636,92.600 88.143 C 91.720 89.202,90.338 90.818,89.530 91.734 C 88.170 93.275,86.000 96.251,86.000 96.575 C 86.000 96.652,85.460 97.294,84.799 98.001 C 83.678 99.201,81.200 102.643,81.200 103.000 C 81.200 103.088,80.615 103.998,79.900 105.023 C 77.195 108.899,74.800 113.205,74.800 114.192 C 74.800 114.505,74.545 114.904,74.234 115.080 C 73.608 115.433,70.000 122.283,70.000 123.117 C 70.000 123.406,69.662 124.307,69.249 125.121 C 68.835 125.934,68.135 127.410,67.692 128.400 C 67.249 129.390,66.507 131.030,66.043 132.044 C 65.580 133.058,65.200 134.176,65.200 134.529 C 65.200 134.882,64.840 136.084,64.400 137.200 C 63.960 138.316,63.600 139.674,63.600 140.216 C 63.600 140.759,63.240 141.875,62.800 142.696 C 62.360 143.516,62.000 144.589,62.000 145.079 C 62.000 145.569,61.640 146.884,61.200 148.000 C 60.760 149.116,60.400 150.435,60.400 150.931 C 60.400 151.426,60.123 152.896,59.784 154.197 C 59.445 155.498,58.894 159.001,58.559 161.981 C 58.224 164.962,57.794 168.750,57.603 170.400 C 57.163 174.213,57.152 190.448,57.587 194.400 C 58.695 204.455,59.253 208.740,59.591 209.800 C 59.801 210.460,60.160 212.195,60.387 213.655 C 60.615 215.116,61.070 216.826,61.398 217.455 C 61.726 218.085,61.996 219.053,61.998 219.606 C 61.999 220.159,62.360 221.284,62.800 222.104 C 63.240 222.925,63.600 224.025,63.600 224.547 C 63.600 225.530,65.218 230.886,66.153 233.000 C 66.445 233.660,67.036 235.010,67.467 236.000 C 67.898 236.990,68.644 238.610,69.126 239.600 C 69.608 240.590,70.002 241.582,70.001 241.804 C 70.000 242.355,73.535 249.255,74.201 250.000 C 74.496 250.330,74.862 251.097,75.013 251.704 C 75.165 252.311,75.451 252.908,75.650 253.031 C 75.849 253.154,76.279 253.827,76.605 254.527 C 77.227 255.861,77.758 256.707,79.900 259.777 C 80.615 260.802,81.200 261.728,81.200 261.836 C 81.200 262.087,82.611 264.100,84.400 266.400 C 86.572 269.192,87.600 270.729,87.600 271.184 C 87.600 271.413,88.050 271.600,88.600 271.600 C 89.955 271.600,89.910 271.473,87.469 268.444 C 86.297 266.990,84.466 264.450,83.399 262.800 C 82.332 261.150,80.871 259.062,80.152 258.161 C 79.434 257.259,78.725 256.042,78.578 255.457 C 78.432 254.871,78.149 254.292,77.950 254.169 C 77.751 254.046,77.321 253.373,76.995 252.673 C 76.669 251.973,76.043 250.860,75.605 250.200 C 74.517 248.561,72.340 244.049,69.572 237.700 C 69.116 236.655,68.575 235.530,68.369 235.200 C 67.908 234.461,67.950 234.580,66.622 230.200 C 66.022 228.220,65.304 225.970,65.026 225.200 C 63.266 220.316,63.091 219.692,61.650 213.200 C 60.870 209.683,59.584 200.932,59.182 196.400 C 58.038 183.527,57.987 182.315,58.386 177.700 C 59.441 165.528,59.967 160.377,60.192 160.013 C 60.327 159.795,60.700 157.619,61.020 155.179 C 61.341 152.738,61.765 150.440,61.962 150.071 C 62.160 149.702,62.448 148.500,62.604 147.400 C 62.759 146.300,63.124 145.021,63.414 144.558 C 63.704 144.096,64.069 143.016,64.224 142.158 C 64.379 141.301,64.688 140.248,64.910 139.818 C 65.133 139.389,65.550 138.219,65.837 137.218 C 67.162 132.593,67.619 131.374,69.812 126.600 C 70.418 125.280,71.233 123.480,71.622 122.600 C 72.759 120.025,74.420 116.723,75.444 115.000 C 76.412 113.371,77.019 112.250,78.476 109.400 C 78.926 108.520,79.412 107.710,79.557 107.600 C 79.701 107.490,81.069 105.510,82.598 103.200 C 92.088 88.855,106.418 74.525,120.800 65.001 C 123.110 63.471,125.090 62.100,125.200 61.954 C 125.310 61.809,126.030 61.398,126.800 61.042 C 127.570 60.686,128.920 59.962,129.800 59.435 C 133.684 57.105,134.456 56.697,138.800 54.682 C 140.450 53.916,142.189 53.172,142.664 53.029 C 143.139 52.886,143.746 52.506,144.013 52.185 C 144.280 51.863,144.791 51.599,145.149 51.598 C 145.507 51.596,146.340 51.309,147.000 50.958 C 147.660 50.608,149.010 50.090,150.000 49.806 C 150.990 49.522,152.430 49.069,153.200 48.798 C 153.970 48.526,155.500 47.997,156.600 47.622 C 157.700 47.246,159.500 46.624,160.600 46.240 C 162.965 45.415,166.448 44.619,171.400 43.772 C 173.380 43.433,176.530 42.812,178.400 42.393 C 180.270 41.973,182.880 41.398,184.200 41.115 C 185.874 40.756,190.473 40.600,199.400 40.600 C 212.508 40.600,215.348 40.847,222.400 42.597 C 223.610 42.897,225.680 43.264,227.000 43.412 C 228.320 43.559,230.739 44.022,232.375 44.440 C 234.012 44.858,235.729 45.200,236.191 45.200 C 236.653 45.200,237.737 45.560,238.600 46.000 C 239.463 46.440,240.509 46.800,240.924 46.800 C 241.339 46.800,242.246 47.051,242.940 47.357 C 244.297 47.957,247.113 48.921,250.000 49.774 C 250.990 50.067,252.340 50.596,253.000 50.951 C 253.660 51.305,254.493 51.596,254.851 51.598 C 255.209 51.599,255.726 51.870,256.000 52.200 C 256.274 52.530,256.708 52.800,256.964 52.800 C 257.221 52.800,258.144 53.169,259.015 53.619 C 259.887 54.069,261.860 54.992,263.400 55.669 C 264.940 56.346,267.001 57.435,267.980 58.090 C 268.958 58.745,270.128 59.453,270.580 59.664 C 272.487 60.557,275.452 62.396,279.825 65.400 C 282.387 67.160,284.771 68.780,285.122 69.000 C 285.474 69.220,286.040 69.694,286.380 70.054 C 286.721 70.414,287.990 71.452,289.200 72.362 C 298.180 79.111,309.441 91.381,317.037 102.693 C 318.696 105.164,320.203 107.278,320.385 107.391 C 320.567 107.503,321.369 108.901,322.167 110.498 C 322.965 112.094,323.972 113.940,324.405 114.600 C 325.215 115.837,327.495 120.427,328.874 123.600 C 329.304 124.590,329.825 125.670,330.031 126.000 C 330.237 126.330,330.503 126.870,330.624 127.200 C 330.744 127.530,331.168 128.520,331.566 129.400 C 331.965 130.280,332.788 132.620,333.395 134.600 C 334.002 136.580,334.727 138.740,335.007 139.400 C 335.287 140.060,335.645 141.230,335.804 142.000 C 335.963 142.770,336.273 143.625,336.495 143.900 C 336.716 144.174,337.121 145.524,337.395 146.900 C 337.668 148.275,338.086 150.210,338.323 151.200 C 338.997 154.014,340.338 162.686,340.611 166.000 C 340.747 167.650,341.115 171.034,341.429 173.520 C 341.743 176.007,342.001 180.237,342.002 182.920 C 342.006 193.229,338.679 216.568,336.573 221.000 C 336.260 221.660,335.887 222.830,335.745 223.600 C 335.603 224.370,335.307 225.352,335.086 225.782 C 334.865 226.211,334.450 227.381,334.163 228.382 C 333.277 231.475,332.348 234.131,331.570 235.800 C 331.160 236.680,330.298 238.570,329.654 240.000 C 327.727 244.279,325.657 248.431,323.971 251.400 C 323.097 252.940,322.071 254.830,321.691 255.600 C 321.311 256.370,320.804 257.180,320.563 257.400 C 320.323 257.620,318.896 259.690,317.392 262.000 C 315.888 264.310,313.789 267.277,312.728 268.594 C 310.614 271.220,310.458 271.601,311.500 271.597 C 312.135 271.595,313.302 270.101,314.074 268.300 C 314.239 267.915,314.551 267.600,314.766 267.600 C 315.076 267.600,318.371 262.844,322.803 256.000 C 323.744 254.546,325.200 251.509,325.200 250.999 C 325.200 250.691,325.455 250.296,325.766 250.120 C 326.392 249.767,330.000 242.917,330.000 242.083 C 330.000 241.794,330.338 240.893,330.751 240.079 C 331.165 239.266,331.865 237.790,332.308 236.800 C 332.751 235.810,333.493 234.170,333.957 233.156 C 334.420 232.142,334.800 231.008,334.800 230.636 C 334.800 230.264,335.053 229.471,335.363 228.872 C 335.672 228.274,336.109 226.797,336.332 225.592 C 336.556 224.386,337.022 222.860,337.367 222.200 C 337.713 221.540,337.997 220.550,338.000 220.000 C 338.003 219.450,338.276 218.481,338.606 217.847 C 338.937 217.213,339.315 215.953,339.447 215.047 C 339.579 214.141,339.936 212.500,340.241 211.400 C 340.546 210.300,341.068 207.060,341.401 204.200 C 341.734 201.340,342.170 197.920,342.370 196.600 C 342.835 193.522,342.859 173.075,342.402 169.400 C 342.210 167.860,341.772 164.194,341.428 161.253 C 341.085 158.313,340.533 154.995,340.202 153.881 C 339.871 152.767,339.600 151.433,339.600 150.917 C 339.600 150.402,339.240 148.956,338.800 147.704 C 338.360 146.452,338.000 145.059,338.000 144.608 C 338.000 144.157,337.640 143.116,337.200 142.296 C 336.760 141.475,336.400 140.472,336.400 140.068 C 336.400 139.385,334.906 134.586,333.390 130.400 C 333.031 129.410,332.482 128.316,332.169 127.969 C 331.856 127.621,331.600 127.101,331.600 126.812 C 331.600 125.841,326.575 115.443,325.791 114.792 C 325.509 114.558,325.175 113.955,325.048 113.450 C 324.846 112.645,323.848 110.754,322.284 108.214 C 322.018 107.782,321.125 106.485,320.300 105.331 C 319.475 104.178,318.800 103.133,318.800 103.009 C 318.800 102.630,316.658 99.502,315.658 98.419 C 315.140 97.859,314.116 96.500,313.382 95.400 C 312.649 94.300,311.408 92.702,310.624 91.850 C 309.841 90.997,309.200 90.230,309.200 90.145 C 309.200 89.254,292.909 73.200,292.005 73.200 C 291.782 73.200,291.600 73.041,291.600 72.847 C 291.600 72.652,290.777 71.887,289.771 71.147 C 288.766 70.406,286.651 68.807,285.071 67.594 C 282.487 65.609,281.124 64.644,279.157 63.405 C 278.804 63.182,277.724 62.464,276.757 61.808 C 274.293 60.137,273.580 59.707,272.127 59.017 C 271.427 58.684,270.750 58.243,270.623 58.037 C 270.495 57.830,269.865 57.546,269.223 57.405 C 268.581 57.264,267.848 56.899,267.595 56.594 C 267.045 55.932,259.942 52.401,259.152 52.397 C 258.848 52.396,258.060 52.037,257.400 51.600 C 256.740 51.163,255.907 50.804,255.549 50.803 C 255.191 50.801,254.683 50.542,254.421 50.226 C 254.159 49.910,253.372 49.526,252.672 49.372 C 251.973 49.219,250.773 48.757,250.006 48.347 C 249.239 47.936,248.301 47.600,247.921 47.600 C 247.541 47.600,246.316 47.240,245.200 46.800 C 244.084 46.360,242.772 46.000,242.285 46.001 C 241.798 46.002,240.680 45.659,239.800 45.240 C 237.843 44.307,234.440 43.395,228.400 42.184 C 226.530 41.809,223.470 41.130,221.600 40.674 C 217.979 39.791,186.619 39.252,181.800 39.989 M47.390 304.000 C 47.390 320.610,47.439 327.405,47.500 319.100 C 47.560 310.795,47.560 297.205,47.500 288.900 C 47.439 280.595,47.390 287.390,47.390 304.000 M122.509 290.400 C 122.509 291.390,122.587 291.795,122.682 291.300 C 122.778 290.805,122.778 289.995,122.682 289.500 C 122.587 289.005,122.509 289.410,122.509 290.400 M187.709 290.400 C 187.709 291.390,187.787 291.795,187.882 291.300 C 187.978 290.805,187.978 289.995,187.882 289.500 C 187.787 289.005,187.709 289.410,187.709 290.400 M213.783 305.600 C 213.783 314.950,213.836 318.775,213.900 314.100 C 213.964 309.425,213.964 301.775,213.900 297.100 C 213.836 292.425,213.783 296.250,213.783 305.600 M269.383 305.600 C 269.383 314.950,269.436 318.775,269.500 314.100 C 269.564 309.425,269.564 301.775,269.500 297.100 C 269.436 292.425,269.383 296.250,269.383 305.600 M275.960 292.922 C 276.138 293.099,277.345 293.186,278.642 293.117 L 281.000 292.990 278.318 292.795 C 276.843 292.688,275.782 292.745,275.960 292.922 M126.115 293.096 C 127.388 293.176,129.368 293.175,130.515 293.094 C 131.662 293.014,130.620 292.949,128.200 292.950 C 125.780 292.951,124.842 293.016,126.115 293.096 M190.100 293.076 C 190.485 293.176,191.115 293.176,191.500 293.076 C 191.885 292.975,191.570 292.893,190.800 292.893 C 190.030 292.893,189.715 292.975,190.100 293.076 M203.100 293.082 C 203.595 293.178,204.405 293.178,204.900 293.082 C 205.395 292.987,204.990 292.909,204.000 292.909 C 203.010 292.909,202.605 292.987,203.100 293.082 M290.905 293.087 C 291.514 293.179,292.414 293.177,292.905 293.082 C 293.397 292.987,292.900 292.911,291.800 292.914 C 290.700 292.917,290.297 292.995,290.905 293.087 M200.980 308.600 C 200.980 316.300,201.034 319.393,201.099 315.474 C 201.165 311.555,201.165 305.255,201.099 301.474 C 201.034 297.693,200.980 300.900,200.980 308.600 M88.093 297.600 C 88.093 298.370,88.175 298.685,88.276 298.300 C 88.376 297.915,88.376 297.285,88.276 296.900 C 88.175 296.515,88.093 296.830,88.093 297.600 M311.300 315.898 C 313.225 315.971,316.375 315.971,318.300 315.898 C 320.225 315.825,318.650 315.765,314.800 315.765 C 310.950 315.765,309.375 315.825,311.300 315.898 M142.909 320.800 C 142.909 321.790,142.987 322.195,143.082 321.700 C 143.178 321.205,143.178 320.395,143.082 319.900 C 142.987 319.405,142.909 319.810,142.909 320.800 M139.684 327.571 C 138.960 327.755,138.045 328.197,137.652 328.553 C 137.259 328.909,136.771 329.199,136.569 329.198 C 135.929 329.194,132.786 332.955,132.556 334.000 C 132.435 334.550,132.054 335.951,131.709 337.114 C 131.137 339.040,131.139 339.431,131.722 341.514 C 132.075 342.771,132.455 344.255,132.567 344.810 C 133.102 347.467,139.848 351.948,143.372 351.987 C 146.872 352.026,154.000 347.684,154.000 345.514 C 154.000 345.153,154.315 344.542,154.700 344.158 C 155.562 343.297,155.927 337.178,155.211 335.600 C 152.033 328.602,146.628 325.808,139.684 327.571 M164.880 328.080 C 164.530 328.430,164.400 331.517,164.400 339.466 C 164.400 351.787,164.348 351.598,167.542 351.001 C 169.944 350.552,170.000 350.410,170.000 344.751 C 170.000 341.918,170.106 339.600,170.236 339.600 C 170.643 339.600,171.951 341.316,173.283 343.600 C 174.613 345.881,174.938 346.347,176.079 347.607 C 176.452 348.020,177.029 348.883,177.361 349.525 C 177.767 350.310,178.381 350.776,179.233 350.947 C 183.134 351.727,183.208 351.515,183.160 339.700 C 183.112 327.871,183.107 327.840,180.984 327.682 C 178.113 327.469,177.820 328.004,177.659 333.768 C 177.547 337.742,177.400 338.800,176.959 338.800 C 176.651 338.800,176.400 338.632,176.400 338.428 C 176.400 337.927,174.933 335.600,173.100 333.193 C 172.275 332.110,171.600 331.045,171.600 330.826 C 171.600 328.644,166.429 326.531,164.880 328.080 M193.680 328.080 C 193.330 328.430,193.200 331.517,193.200 339.466 C 193.200 352.268,192.703 351.203,198.674 351.194 C 203.871 351.186,204.600 350.818,204.600 348.200 C 204.600 345.848,203.776 345.215,200.700 345.206 L 198.800 345.200 198.800 337.029 C 198.800 330.133,198.702 328.759,198.171 328.229 C 197.423 327.480,194.380 327.380,193.680 328.080 M213.029 328.229 C 212.094 329.163,212.083 349.639,213.016 350.413 C 213.908 351.153,217.138 351.144,217.608 350.400 C 218.197 349.470,218.114 328.674,217.520 328.080 C 216.820 327.380,213.777 327.480,213.029 328.229 M227.823 328.489 C 227.150 329.449,226.870 348.862,227.514 349.875 C 228.004 350.644,230.051 351.252,231.259 350.987 C 232.738 350.662,233.195 348.993,233.198 343.900 C 233.200 339.181,234.660 338.949,236.338 343.400 C 236.645 344.215,238.614 347.011,239.099 347.320 C 239.374 347.496,239.600 347.867,239.600 348.145 C 239.600 349.368,241.942 350.933,243.770 350.933 C 246.938 350.933,246.852 351.281,246.718 339.121 C 246.587 327.151,246.706 327.617,243.780 327.606 C 241.347 327.597,241.200 327.929,241.200 333.447 C 241.200 340.648,240.733 340.788,237.355 334.600 C 236.995 333.940,236.093 332.650,235.350 331.733 C 234.608 330.816,234.000 329.902,234.000 329.702 C 234.000 327.759,229.019 326.781,227.823 328.489 M257.055 328.202 C 256.072 329.185,255.944 330.796,256.076 340.487 C 256.230 351.758,255.732 350.950,262.633 351.133 C 269.038 351.303,269.793 350.950,269.502 347.917 C 269.265 345.450,268.911 345.215,265.400 345.200 C 261.864 345.185,261.414 344.918,261.765 343.047 C 262.073 341.402,262.415 341.259,266.400 341.102 L 269.000 341.000 269.373 339.489 C 270.088 336.593,269.436 335.816,266.192 335.698 C 262.380 335.559,261.600 335.339,261.600 334.400 C 261.600 333.461,262.380 333.241,266.192 333.102 C 269.436 332.984,270.088 332.207,269.373 329.311 L 269.000 327.800 263.339 327.689 C 258.643 327.597,257.572 327.685,257.055 328.202 M148.185 329.193 C 153.374 331.557,156.034 338.310,153.782 343.403 C 148.663 354.976,133.000 351.960,133.000 339.400 C 133.000 330.807,140.565 325.722,148.185 329.193 M182.324 338.319 C 182.476 349.501,182.406 350.002,180.682 349.994 C 179.977 349.991,179.200 349.856,178.955 349.694 C 178.492 349.388,174.400 343.420,174.400 343.051 C 174.400 342.935,173.864 342.066,173.209 341.120 C 169.498 335.759,169.036 336.001,168.888 343.378 C 168.765 349.499,168.588 350.000,166.544 350.000 L 165.187 350.000 165.293 339.500 L 165.400 329.000 167.187 329.000 L 168.975 329.000 172.246 334.000 C 175.886 339.562,178.172 342.361,178.670 341.864 C 178.852 341.684,179.049 339.075,179.108 336.068 C 179.239 329.446,179.343 328.898,180.501 328.707 C 182.102 328.444,182.196 328.940,182.324 338.319 M197.043 329.500 C 197.440 330.023,197.578 332.098,197.587 337.700 C 197.602 346.404,197.748 346.800,200.951 346.800 C 203.135 346.800,203.927 347.564,203.261 349.025 C 202.810 350.015,202.754 350.026,198.502 349.914 L 194.200 349.800 194.093 339.807 C 194.034 334.311,194.073 329.586,194.180 329.307 C 194.467 328.559,196.429 328.691,197.043 329.500 M217.005 329.700 C 217.126 330.195,217.175 334.920,217.113 340.200 L 217.000 349.800 215.820 349.934 C 213.721 350.173,213.600 349.602,213.600 339.455 C 213.600 331.463,213.686 330.167,214.262 329.531 C 215.208 328.486,216.731 328.579,217.005 329.700 M232.096 329.354 C 232.825 329.908,235.457 333.701,237.291 336.842 C 240.894 343.015,242.000 342.705,242.000 335.525 C 242.000 329.917,242.299 328.800,243.800 328.800 C 245.442 328.800,245.600 329.775,245.600 339.931 C 245.600 348.301,245.520 349.545,244.967 349.757 C 243.781 350.212,242.289 350.001,241.733 349.300 C 240.745 348.055,237.732 343.435,237.085 342.175 C 236.000 340.059,232.726 336.674,232.346 337.274 C 232.162 337.563,232.009 339.983,232.006 342.650 C 231.998 349.364,231.825 350.075,230.246 349.921 L 229.000 349.800 228.887 340.200 C 228.825 334.920,228.874 330.195,228.995 329.700 C 229.249 328.661,230.935 328.472,232.096 329.354 M268.539 329.688 C 269.131 331.951,268.576 332.400,265.189 332.400 C 261.107 332.400,260.800 332.540,260.800 334.400 C 260.800 336.260,261.107 336.400,265.189 336.400 C 268.195 336.400,268.323 336.438,268.566 337.408 C 269.066 339.401,268.279 340.000,265.160 340.000 C 261.214 340.000,260.800 340.298,260.800 343.134 C 260.800 346.147,261.115 346.400,264.866 346.400 C 268.292 346.400,269.138 346.997,268.623 349.049 L 268.379 350.023 263.089 349.912 L 257.800 349.800 257.687 340.200 C 257.538 327.520,256.924 328.800,263.161 328.800 C 268.140 328.800,268.314 328.829,268.539 329.688 M141.532 331.947 C 133.117 334.998,134.793 347.200,143.627 347.200 C 151.537 347.200,153.937 335.239,146.600 332.382 C 143.936 331.344,143.336 331.293,141.532 331.947 M148.089 334.846 C 149.700 336.612,150.236 338.389,149.859 340.713 C 148.909 346.567,140.111 347.467,137.488 341.979 C 134.420 335.556,143.292 329.587,148.089 334.846 M332.400 343.691 C 332.400 348.885,332.291 353.419,332.157 353.767 C 331.936 354.342,319.920 354.400,200.004 354.400 L 68.093 354.400 67.852 353.500 C 67.719 353.005,67.608 348.584,67.605 343.676 C 67.602 337.831,67.462 334.838,67.200 335.000 C 66.455 335.461,66.679 354.668,67.433 354.957 C 67.781 355.091,127.635 355.200,200.443 355.200 L 332.820 355.200 333.210 354.174 C 333.877 352.419,333.686 335.947,332.987 335.024 C 332.466 334.334,332.400 335.301,332.400 343.691 M60.900 345.064 C 61.505 345.755,61.600 346.743,61.600 352.358 C 61.600 356.070,61.777 359.184,62.014 359.626 C 62.547 360.622,338.308 360.875,339.133 359.880 C 339.752 359.135,339.955 344.399,339.347 344.400 C 338.586 344.400,338.411 345.933,338.405 352.657 C 338.401 358.173,338.308 359.150,337.767 359.357 C 337.419 359.491,275.432 359.600,200.017 359.600 L 62.900 359.600 62.650 358.350 C 62.513 357.663,62.400 354.332,62.400 350.950 C 62.400 347.482,62.240 344.800,62.033 344.800 C 61.831 344.800,61.336 344.679,60.933 344.532 C 60.233 344.276,60.231 344.300,60.900 345.064 " stroke="none" fill="#f6adb2" fill-rule="evenodd"></path></g></svg>